# https://github.com/mikedh/trimesh
v 0.00000000 0.00000000 55.00000000
v 0.93356524 7.43918785 52.68876222
v 0.93356524 7.27983731 54.07313280
v 0.93356524 7.09327534 54.95856699
v 0.93356524 6.89006697 55.71704267
v 0.93356524 6.67375844 56.40070025
v 0.93356524 6.44681904 57.03111741
v 0.93356524 6.21129384 57.61969435
v 0.93356524 5.96899724 58.17325581
v 0.93356524 5.72158677 58.69620722
v 0.93356524 5.47059377 59.19153516
v 0.93356524 5.21743549 59.66133196
v 0.93356524 4.96341806 60.10709592
v 0.93356524 4.70973494 60.52991477
v 0.93356524 4.45746264 60.93058380
v 0.93356524 4.20755512 61.30968501
v 0.93356524 3.96083728 61.66764219
v 0.93356524 3.71799791 62.00476015
v 0.93356524 3.47958205 62.32125356
v 0.93356524 3.24598283 62.61726844
v 0.93356524 3.01743225 62.89289853
v 0.93356524 2.79399047 63.14819801
v 0.93356524 2.57553259 63.38319137
v 0.93356524 2.36173132 63.59788129
v 0.93356524 2.15203297 63.79225496
v 0.93356524 1.94562216 63.96628909
v 0.93356524 1.74136717 64.11995406
v 0.93356524 1.53773001 64.25321719
v 0.93356524 1.33260853 64.36604544
v 0.93356524 1.12303389 64.45840758
v 0.93356524 0.90451748 64.53027592
v 0.93356524 0.66935568 64.58162759
v 0.93356524 0.40047861 64.61244559
v 0.93356524 -0.01545116 64.62271943
v 0.93356524 -0.43138094 64.61244559
v 0.93356524 -0.70025800 64.58162759
v 0.93356524 -0.93541980 64.53027592
v 0.93356524 -1.15393622 64.45840758
v 0.93356524 -1.36351085 64.36604544
v 0.93356524 -1.56863233 64.25321719
v 0.93356524 -1.77226949 64.11995406
v 0.93356524 -1.97652448 63.96628909
v 0.93356524 -2.18293529 63.79225496
v 0.93356524 -2.39263365 63.59788129
v 0.93356524 -2.60643492 63.38319137
v 0.93356524 -2.82489279 63.14819801
v 0.93356524 -3.04833457 62.89289853
v 0.93356524 -3.27688515 62.61726844
v 0.93356524 -3.51048437 62.32125356
v 0.93356524 -3.74890023 62.00476015
v 0.93356524 -3.99173961 61.66764219
v 0.93356524 -4.23845744 61.30968501
v 0.93356524 -4.48836497 60.93058380
v 0.93356524 -4.74063727 60.52991477
v 0.93356524 -4.99432039 60.10709592
v 0.93356524 -5.24833781 59.66133196
v 0.93356524 -5.50149610 59.19153516
v 0.93356524 -5.75248909 58.69620722
v 0.93356524 -5.99989957 58.17325581
v 0.93356524 -6.24219617 57.61969435
v 0.93356524 -6.47772136 57.03111741
v 0.93356524 -6.70466076 56.40070025
v 0.93356524 -6.92096930 55.71704267
v 0.93356524 -7.12417766 54.95856699
v 0.93356524 -7.31073963 54.07313280
v 0.93356524 -7.47009018 52.68876222
v 0.93356524 -7.46510026 51.73052763
v 0.93356524 -7.45012650 51.28135450
v 0.93356524 -7.42515668 50.92774572
v 0.93356524 -7.39017010 50.62578608
v 0.93356524 -7.34513691 50.35821362
v 0.93356524 -7.29001729 50.11613629
v 0.93356524 -7.22476025 49.89428234
v 0.93356524 -7.14930213 49.68924094
v 0.93356524 -7.06356465 49.49866959
v 0.93356524 -6.96745252 49.32088859
v 0.93356524 -6.86085041 49.15465379
v 0.93356524 -6.74361921 48.99902016
v 0.93356524 -6.61559132 48.85325554
v 0.93356524 -6.47656477 48.71678361
v 0.93356524 -6.32629576 48.58914482
v 0.93356524 -6.16448913 48.46996892
v 0.93356524 -5.99078610 48.35895501
v 0.93356524 -5.80474812 48.25585695
v 0.93356524 -5.60583554 48.16047223
v 0.93356524 -5.39337855 48.07263358
v 0.93356524 -5.16653712 47.99220242
v 0.93356524 -4.92424410 47.91906379
v 0.93356524 -4.66512212 47.85312222
v 0.93356524 -4.38735775 47.79429859
v 0.93356524 -4.08850277 47.74252753
v 0.93356524 -3.76514293 47.69775533
v 0.93356524 -3.41230680 47.65993831
v 0.93356524 -3.02231064 47.62904149
v 0.93356524 -2.58219396 47.60503755
v 0.93356524 -2.06679686 47.58790601
v 0.93356524 -1.41211140 47.57763266
v 0.93356524 -0.01545117 47.57420913
v 0.93356524 1.38120908 47.57763266
v 0.93356524 2.03589454 47.58790601
v 0.93356524 2.55129164 47.60503755
v 0.93356524 2.99140832 47.62904149
v 0.93356524 3.38140447 47.65993831
v 0.93356524 3.73424060 47.69775533
v 0.93356524 4.05760045 47.74252753
v 0.93356524 4.35645542 47.79429859
v 0.93356524 4.63421980 47.85312222
v 0.93356524 4.89334178 47.91906379
v 0.93356524 5.13563479 47.99220242
v 0.93356524 5.36247622 48.07263358
v 0.93356524 5.57493322 48.16047223
v 0.93356524 5.77384580 48.25585695
v 0.93356524 5.95988377 48.35895501
v 0.93356524 6.13358681 48.46996892
v 0.93356524 6.29539343 48.58914482
v 0.93356524 6.44566245 48.71678361
v 0.93356524 6.58468899 48.85325554
v 0.93356524 6.71271688 48.99902016
v 0.93356524 6.82994808 49.15465379
v 0.93356524 6.93655019 49.32088859
v 0.93356524 7.03266233 49.49866959
v 0.93356524 7.11839981 49.68924094
v 0.93356524 7.19385793 49.89428234
v 0.93356524 7.25911497 50.11613629
v 0.93356524 7.31423459 50.35821362
v 0.93356524 7.35926777 50.62578608
v 0.93356524 7.39425436 50.92774572
v 0.93356524 7.41922417 51.28135450
v 0.93356524 7.43419794 51.73052763
v 1.87644001 10.47418864 52.13735137
v 1.87644001 10.25003903 54.18745837
v 1.87644001 9.98743828 55.49937275
v 1.87644001 9.70132480 56.62335119
v 1.87644001 9.39670875 57.63655778
v 1.87644001 9.07707640 58.57092835
v 1.87644001 8.74531385 59.44333598
v 1.87644001 8.40398098 60.26388158
v 1.87644001 8.05541602 61.03908504
v 1.87644001 7.70177901 61.77336602
v 1.87644001 7.34506893 62.46982046
v 1.87644001 6.98712808 63.13066497
v 1.87644001 6.62963977 63.75750842
v 1.87644001 6.27412246 64.35152676
v 1.87644001 5.92192181 64.91358029
v 1.87644001 5.57420150 65.44429505
v 1.87644001 5.23193335 65.94412109
v 1.87644001 4.89588654 66.41337498
v 1.87644001 4.56661607 66.85227176
v 1.87644001 4.24444985 67.26094915
v 1.87644001 3.92947355 67.63948632
v 1.87644001 3.62151200 67.98791857
v 1.87644001 3.32010481 68.30624901
v 1.87644001 3.02447256 68.59445782
v 1.87644001 2.73346708 68.85250982
v 1.87644001 2.44549452 69.08036045
v 1.87644001 2.15838874 69.27796075
v 1.87644001 1.86918896 69.44526128
v 1.87644001 1.57371383 69.58221539
v 1.87644001 1.26564187 69.68878169
v 1.87644001 0.93412481 69.76492606
v 1.87644001 0.55512801 69.81062311
v 1.87644001 -0.03085082 69.82585722
v 1.87644001 -0.61682965 69.81062311
v 1.87644001 -0.99582645 69.76492606
v 1.87644001 -1.32734352 69.68878169
v 1.87644001 -1.63541547 69.58221539
v 1.87644001 -1.93089061 69.44526128
v 1.87644001 -2.22009038 69.27796075
v 1.87644001 -2.50719616 69.08036045
v 1.87644001 -2.79516873 68.85250982
v 1.87644001 -3.08617420 68.59445782
v 1.87644001 -3.38180646 68.30624901
v 1.87644001 -3.68321364 67.98791857
v 1.87644001 -3.99117519 67.63948632
v 1.87644001 -4.30615149 67.26094915
v 1.87644001 -4.62831772 66.85227176
v 1.87644001 -4.95758818 66.41337498
v 1.87644001 -5.29363499 65.94412109
v 1.87644001 -5.63590315 65.44429505
v 1.87644001 -5.98362345 64.91358029
v 1.87644001 -6.33582411 64.35152676
v 1.87644001 -6.69134141 63.75750842
v 1.87644001 -7.04882972 63.13066497
v 1.87644001 -7.40677057 62.46982046
v 1.87644001 -7.76348065 61.77336602
v 1.87644001 -8.11711766 61.03908504
v 1.87644001 -8.46568262 60.26388158
v 1.87644001 -8.80701549 59.44333598
v 1.87644001 -9.13877804 58.57092835
v 1.87644001 -9.45841039 57.63655778
v 1.87644001 -9.76302644 56.62335119
v 1.87644001 -10.04913993 55.49937275
v 1.87644001 -10.31174068 54.18745837
v 1.87644001 -10.53589029 52.13735137
v 1.87644001 -10.52885853 50.71705651
v 1.87644001 -10.50775757 50.05129230
v 1.87644001 -10.47257023 49.52717353
v 1.87644001 -10.42326731 49.07960909
v 1.87644001 -10.35980678 48.68301332
v 1.87644001 -10.28213249 48.32420641
v 1.87644001 -10.19017260 47.99537460
v 1.87644001 -10.08383740 47.69146232
v 1.87644001 -9.96301657 47.40899755
v 1.87644001 -9.82757585 47.14549065
v 1.87644001 -9.67735270 46.89909749
v 1.87644001 -9.51215108 46.66841740
v 1.87644001 -9.33173483 46.45236516
v 1.87644001 -9.13581932 46.25008652
v 1.87644001 -8.92406099 46.06090037
v 1.87644001 -8.69604392 45.88425789
v 1.87644001 -8.45126249 45.71971314
v 1.87644001 -8.18909872 45.56690124
v 1.87644001 -7.90879211 45.42552204
v 1.87644001 -7.60939880 45.29532764
v 1.87644001 -7.28973500 45.17611262
v 1.87644001 -6.94829692 45.06770657
v 1.87644001 -6.58314354 44.96996800
v 1.87644001 -6.19171939 44.88277965
v 1.87644001 -5.77057448 44.80604460
v 1.87644001 -5.31489743 44.73968327
v 1.87644001 -4.81768254 44.68363091
v 1.87644001 -4.26810194 44.63783566
v 1.87644001 -3.64789175 44.60225702
v 1.87644001 -2.92159677 44.57686466
v 1.87644001 -1.99901734 44.56163750
v 1.87644001 -0.03085084 44.55656315
v 1.87644001 1.93731570 44.56163750
v 1.87644001 2.85989513 44.57686466
v 1.87644001 3.58619010 44.60225702
v 1.87644001 4.20640029 44.63783566
v 1.87644001 4.75598090 44.68363091
v 1.87644001 5.25319578 44.73968327
v 1.87644001 5.70887283 44.80604460
v 1.87644001 6.13001775 44.88277965
v 1.87644001 6.52144189 44.96996800
v 1.87644001 6.88659528 45.06770657
v 1.87644001 7.22803336 45.17611262
v 1.87644001 7.54769715 45.29532764
v 1.87644001 7.84709047 45.42552204
v 1.87644001 8.12739707 45.56690124
v 1.87644001 8.38956084 45.71971314
v 1.87644001 8.63434228 45.88425789
v 1.87644001 8.86235935 46.06090037
v 1.87644001 9.07411768 46.25008652
v 1.87644001 9.27003319 46.45236516
v 1.87644001 9.45044944 46.66841740
v 1.87644001 9.61565105 46.89909749
v 1.87644001 9.76587420 47.14549065
v 1.87644001 9.90131493 47.40899755
v 1.87644001 10.02213576 47.69146232
v 1.87644001 10.12847096 47.99537460
v 1.87644001 10.22043085 48.32420641
v 1.87644001 10.29810513 48.68301332
v 1.87644001 10.36156567 49.07960909
v 1.87644001 10.41086859 49.52717353
v 1.87644001 10.44605593 50.05129230
v 1.87644001 10.46715688 50.71705651
v 2.82862121 9.82284499 63.02167612
v 2.82862121 9.39140171 63.94582541
v 2.82862121 8.95618236 64.82239350
v 2.82862121 8.51943696 65.65416456
v 2.82862121 8.08322141 66.44315897
v 2.82862121 7.64939029 67.19085306
v 2.82862121 7.21958721 67.89832643
v 2.82862121 6.79523368 68.56636437
v 2.82862121 6.37751692 69.19553094
v 2.82862121 5.96737686 69.78622259
v 2.82862121 5.56549195 70.33870817
v 2.82862121 5.17226347 70.85315943
v 2.82862121 4.78779706 71.32967459
v 2.82862121 4.41187999 71.76829685
v 2.82862121 4.04395151 72.16902901
v 2.82862121 3.68306151 72.53184514
v 2.82862121 3.32781004 72.85670008
v 2.82862121 2.97625340 73.14353700
v 2.82862121 2.62574987 73.39229360
v 2.82862121 2.27268852 73.60290710
v 2.82862121 1.91196998 73.77531832
v 2.82862121 1.53588534 73.90947476
v 2.82862121 1.13120650 74.00533320
v 2.82862121 0.66863029 74.06286149
v 2.82862121 -0.04621462 74.08203981
v 2.82862121 -0.76105954 74.06286149
v 2.82862121 -1.22363575 74.00533320
v 2.82862121 -1.62831458 73.90947476
v 2.82862121 -2.00439923 73.77531832
v 2.82862121 -2.36511777 73.60290710
v 2.82862121 -2.71817911 73.39229360
v 2.82862121 -3.06868265 73.14353700
v 2.82862121 -3.42023929 72.85670008
v 2.82862121 -3.77549075 72.53184514
v 2.82862121 -4.13638075 72.16902901
v 2.82862121 -4.50430924 71.76829685
v 2.82862121 -4.88022630 71.32967459
v 2.82862121 -5.26469272 70.85315943
v 2.82862121 -5.65792120 70.33870817
v 2.82862121 -6.05980610 69.78622259
v 2.82862121 -6.46994617 69.19553094
v 2.82862121 -6.88766293 68.56636437
v 2.82862121 -7.31201646 67.89832643
v 2.82862121 -7.74181954 67.19085306
v 2.82862121 -8.17565066 66.44315897
v 2.82862121 -8.61186621 65.65416456
v 2.82862121 -9.04861160 64.82239350
v 2.82862121 -9.48383095 63.94582541
v 2.82862121 -9.91527424 63.02167612
v 2.82862121 -11.81710915 45.23107104
v 2.82862121 -11.61552615 44.94078387
v 2.82862121 -11.39537788 44.66890434
v 2.82862121 -11.15631705 44.41435749
v 2.82862121 -10.89792442 44.17628618
v 2.82862121 -10.61969248 43.95399979
v 2.82862121 -10.32100427 43.74693714
v 2.82862121 -10.00110571 43.55463908
v 2.82862121 -9.65906882 43.37672791
v 2.82862121 -9.29374186 43.21289164
v 2.82862121 -8.90368039 43.06287181
v 2.82862121 -8.48704939 42.92645394
v 2.82862121 -8.04148042 42.80346001
v 2.82862121 -7.56385522 42.69374244
v 2.82862121 -7.04996402 42.59717928
v 2.82862121 -6.49393589 42.51367037
v 2.82862121 -5.88722228 42.44313423
v 2.82862121 -5.21661075 42.38550562
v 2.82862121 -4.45981530 42.34073357
v 2.82862121 -3.57357264 42.30877989
v 2.82862121 -2.44781894 42.28961808
v 2.82862121 -0.04621465 42.28323253
v 2.82862121 2.35538969 42.28961808
v 2.82862121 3.48114339 42.30877989
v 2.82862121 4.36738606 42.34073357
v 2.82862121 5.12418150 42.38550562
v 2.82862121 5.79479303 42.44313423
v 2.82862121 6.40150664 42.51367037
v 2.82862121 6.95753478 42.59717928
v 2.82862121 7.47142598 42.69374244
v 2.82862121 7.94905117 42.80346001
v 2.82862121 8.39462014 42.92645394
v 2.82862121 8.81125114 43.06287181
v 2.82862121 9.20131262 43.21289164
v 2.82862121 9.56663957 43.37672791
v 2.82862121 9.90867646 43.55463908
v 2.82862121 10.22857502 43.74693714
v 2.82862121 10.52726324 43.95399979
v 2.82862121 10.80549518 44.17628618
v 2.82862121 11.06388780 44.41435749
v 2.82862121 11.30294864 44.66890434
v 2.82862121 11.52309690 44.94078387
v 2.82862121 11.72467990 45.23107104
v 3.79010370 9.29186388 68.82500658
v 3.79010370 8.79282037 69.70487244
v 3.79010370 8.29838858 70.53742350
v 3.79010370 7.81020534 71.32358065
v 3.79010370 7.32963791 72.06400492
v 3.79010370 6.85776894 72.75916041
v 3.79010370 6.39538029 73.40936138
v 3.79010370 5.94293483 74.01480810
v 3.79010370 5.50055532 74.57561450
v 3.79010370 5.06799826 75.09182995
v 3.79010370 4.64461976 75.56345643
v 3.79010370 4.22932810 75.99046232
v 3.79010370 3.82051417 76.37279343
v 3.79010370 3.41594353 76.71038200
v 3.79010370 3.01257914 77.00315397
v 3.79010370 2.60626968 77.25103481
v 3.79010370 2.19115275 77.45395431
v 3.79010370 1.75836643 77.61185027
v 3.79010370 1.29270555 77.72467149
v 3.79010370 0.76049173 77.79237986
v 3.79010370 -0.06155941 77.81495196
v 3.79010370 -0.88361055 77.79237986
v 3.79010370 -1.41582437 77.72467149
v 3.79010370 -1.88148526 77.61185027
v 3.79010370 -2.31427157 77.45395431
v 3.79010370 -2.72938851 77.25103481
v 3.79010370 -3.13569796 77.00315397
v 3.79010370 -3.53906235 76.71038200
v 3.79010370 -3.94363299 76.37279343
v 3.79010370 -4.35244692 75.99046232
v 3.79010370 -4.76773858 75.56345643
v 3.79010370 -5.19111709 75.09182995
v 3.79010370 -5.62367414 74.57561450
v 3.79010370 -6.06605366 74.01480810
v 3.79010370 -6.51849911 73.40936138
v 3.79010370 -6.98088777 72.75916041
v 3.79010370 -7.45275673 72.06400492
v 3.79010370 -7.93332417 71.32358065
v 3.79010370 -8.42150740 70.53742350
v 3.79010370 -8.91593919 69.70487244
v 3.79010370 -9.41498270 68.82500658
v 3.79010370 -12.22384036 42.36970058
v 3.79010370 -11.88027034 42.12609404
v 3.79010370 -11.51230285 41.89985785
v 3.79010370 -11.11887045 41.69054765
v 3.79010370 -10.69864835 41.49779638
v 3.79010370 -10.24997505 41.32129998
v 3.79010370 -9.77073980 41.16080611
v 3.79010370 -9.25821827 41.01610533
v 3.79010370 -8.70882366 40.88702402
v 3.79010370 -8.11771360 40.77341871
v 3.79010370 -7.47813497 40.67517155
v 3.79010370 -6.78025472 40.59218669
v 3.79010370 -6.00887506 40.52438737
v 3.79010370 -5.13836121 40.47171363
v 3.79010370 -4.11894902 40.43412054
v 3.79010370 -2.82403613 40.41157692
v 3.79010370 -0.06155944 40.40406440
v 3.79010370 2.70091731 40.41157692
v 3.79010370 3.99583019 40.43412054
v 3.79010370 5.01524239 40.47171363
v 3.79010370 5.88575624 40.52438737
v 3.79010370 6.65713590 40.59218669
v 3.79010370 7.35501615 40.67517155
v 3.79010370 7.99459478 40.77341871
v 3.79010370 8.58570484 40.88702402
v 3.79010370 9.13509945 41.01610533
v 3.79010370 9.64762098 41.16080611
v 3.79010370 10.12685622 41.32129998
v 3.79010370 10.57552953 41.49779638
v 3.79010370 10.99575163 41.69054765
v 3.79010370 11.38918402 41.89985785
v 3.79010370 11.75715152 42.12609404
v 3.79010370 12.10072154 42.36970058
v 4.76088025 9.23496920 72.94320940
v 4.76088025 8.69127747 73.83473920
v 4.76088025 8.15604633 74.67441926
v 4.76088025 7.63048307 75.46277316
v 4.76088025 7.11545989 76.20015490
v 4.76088025 6.61149369 76.88678948
v 4.76088025 6.11872254 77.52280425
v 4.76088025 5.63687659 78.10825356
v 4.76088025 5.16524010 78.64313818
v 4.76088025 4.70259865 79.12742097
v 4.76088025 4.24716170 79.56103935
v 4.76088025 3.79644260 79.94391549
v 4.76088025 3.34706122 80.27596452
v 4.76088025 2.89439725 80.55710121
v 4.76088025 2.43192614 80.78724532
v 4.76088025 1.94978562 80.96632583
v 4.76088025 1.43105559 81.09428428
v 4.76088025 0.83826429 81.17107720
v 4.76088025 -0.07690326 81.19667785
v 4.76088025 -0.99207082 81.17107720
v 4.76088025 -1.58486211 81.09428428
v 4.76088025 -2.10359215 80.96632583
v 4.76088025 -2.58573266 80.78724532
v 4.76088025 -3.04820377 80.55710121
v 4.76088025 -3.50086774 80.27596452
v 4.76088025 -3.95024912 79.94391549
v 4.76088025 -4.40096823 79.56103935
v 4.76088025 -4.85640517 79.12742097
v 4.76088025 -5.31904663 78.64313818
v 4.76088025 -5.79068312 78.10825356
v 4.76088025 -6.27252906 77.52280425
v 4.76088025 -6.76530021 76.88678948
v 4.76088025 -7.26926642 76.20015490
v 4.76088025 -7.78428960 75.46277316
v 4.76088025 -8.30985286 74.67441926
v 4.76088025 -8.84508400 73.83473920
v 4.76088025 -9.38877572 72.94320940
v 4.76088025 -12.38984478 40.24164556
v 4.76088025 -11.92190370 40.02311921
v 4.76088025 -11.42228058 39.82302135
v 4.76088025 -10.88862502 39.64106592
v 4.76088025 -10.31790330 39.47701546
v 4.76088025 -9.70612131 39.33067314
v 4.76088025 -9.04788681 39.20187629
v 4.76088025 -8.33567982 39.09049132
v 4.76088025 -7.55855067 38.99640957
v 4.76088025 -6.69957577 38.91954398
v 4.76088025 -5.73020934 38.85982660
v 4.76088025 -4.59503618 38.81720649
v 4.76088025 -3.15307741 38.79164829
v 4.76088025 -0.07690329 38.78313118
v 4.76088025 2.99927088 38.79164829
v 4.76088025 4.44122965 38.81720649
v 4.76088025 5.57640282 38.85982660
v 4.76088025 6.54576924 38.91954398
v 4.76088025 7.40474414 38.99640957
v 4.76088025 8.18187329 39.09049132
v 4.76088025 8.89408028 39.20187629
v 4.76088025 9.55231478 39.33067314
v 4.76088025 10.16409677 39.47701546
v 4.76088025 10.73481850 39.64106592
v 4.76088025 11.26847406 39.82302135
v 4.76088025 11.76809717 40.02311921
v 4.76088025 12.23603826 40.24164556
v 5.74094158 8.89142648 77.09279527
v 5.74094158 8.31798601 77.96605187
v 5.74094158 7.75602531 78.78285707
v 5.74094158 7.20610986 79.54345775
v 5.74094158 6.66839174 80.24799297
v 5.74094158 6.14257803 80.89652111
v 5.74094158 5.62788929 81.48904142
v 5.74094158 5.12300211 82.02551135
v 5.74094158 4.62596470 82.50586032
v 5.74094158 4.13406605 82.93000104
v 5.74094158 3.64362084 83.29783858
v 5.74094158 3.14959155 83.60927772
v 5.74094158 2.64486461 83.86422889
v 5.74094158 2.11868805 84.06261291
v 5.74094158 1.55261698 84.20436459
v 5.74094158 0.90580828 84.28943549
v 5.74094158 -0.09226552 84.31779581
v 5.74094158 -1.09033932 84.28943549
v 5.74094158 -1.73714803 84.20436459
v 5.74094158 -2.30321910 84.06261291
v 5.74094158 -2.82939565 83.86422889
v 5.74094158 -3.33412259 83.60927772
v 5.74094158 -3.82815188 83.29783858
v 5.74094158 -4.31859709 82.93000104
v 5.74094158 -4.81049575 82.50586032
v 5.74094158 -5.30753315 82.02551135
v 5.74094158 -5.81242034 81.48904142
v 5.74094158 -6.32710908 80.89652111
v 5.74094158 -6.85292279 80.24799297
v 5.74094158 -7.39064090 79.54345775
v 5.74094158 -7.94055635 78.78285707
v 5.74094158 -8.50251705 77.96605187
v 5.74094158 -9.07595753 77.09279527
v 5.74094158 -12.46859159 38.50222541
v 5.74094158 -11.88644302 38.30073507
v 5.74094158 -11.26386009 38.11907201
v 5.74094158 -10.59648578 37.95701824
v 5.74094158 -9.87843784 37.81439364
v 5.74094158 -9.10151296 37.69105028
v 5.74094158 -8.25376647 37.58686782
v 5.74094158 -7.31673695 37.50174988
v 5.74094158 -6.25928469 37.43562119
v 5.74094158 -5.02095891 37.38842534
v 5.74094158 -3.44797007 37.36012319
v 5.74094158 -0.09226555 37.35069167
v 5.74094158 3.26343902 37.36012319
v 5.74094158 4.83642786 37.38842534
v 5.74094158 6.07475364 37.43562119
v 5.74094158 7.13220591 37.50174988
v 5.74094158 8.06923543 37.58686782
v 5.74094158 8.91698192 37.69105028
v 5.74094158 9.69390680 37.81439364
v 5.74094158 10.41195474 37.95701824
v 5.74094158 11.07932905 38.11907201
v 5.74094158 11.70191197 38.30073507
v 5.74094158 12.28406054 38.50222541
v 6.73027634 8.33499894 81.20066299
v 6.73027634 7.74344805 82.02955221
v 6.73027634 7.16499845 82.79735009
v 6.73027634 6.59933662 83.50411830
v 6.73027634 6.04562581 84.14985430
v 6.73027634 -6.26095947 84.14985430
v 6.73027634 -6.81467028 83.50411830
v 6.73027634 -7.38033211 82.79735009
v 6.73027634 -7.95878171 82.02955221
v 6.73027634 -8.55033260 81.20066299
v 6.73027634 -12.12175382 36.90247299
v 6.73027634 -11.40405027 36.72592681
v 6.73027634 -10.63185161 36.57054734
v 6.73027634 -9.79633587 36.43617343
v 6.73027634 -8.88465759 36.32267396
v 6.73027634 -7.87696312 36.22994396
v 6.73027634 -6.73976435 36.15790139
v 6.73027634 -5.40805172 36.10648484
v 6.73027634 -3.71643781 36.07565163
v 6.73027634 -0.10766686 36.06537666
v 6.73027634 3.50110415 36.07565163
v 6.73027634 5.19271806 36.10648484
v 6.73027634 6.52443070 36.15790139
v 6.73027634 7.66162946 36.22994396
v 6.73027634 8.66932394 36.32267396
v 6.73027634 9.58100221 36.43617343
v 6.73027634 10.41651795 36.57054734
v 6.73027634 11.18871661 36.72592681
v 6.73027634 11.90642016 36.90247299
v 7.72887115 8.86397836 83.48166471
v 7.72887115 -9.11023667 83.48166471
v 7.72887115 -12.14445881 35.61134408
v 7.72887115 -11.32270424 35.44409362
v 7.72887115 -10.43356922 35.29945353
v 7.72887115 -9.46338393 35.17728270
v 7.72887115 -8.39102059 35.07746811
v 7.72887115 -7.18084201 34.99992149
v 7.72887115 -5.76366662 34.94457671
v 7.72887115 -3.96349327 34.91138785
v 7.72887115 -0.12312919 34.90032787
v 7.72887115 3.71723497 34.91138785
v 7.72887115 5.51740832 34.94457671
v 7.72887115 6.93458371 34.99992149
v 7.72887115 8.14476228 35.07746811
v 7.72887115 9.21712563 35.17728270
v 7.72887115 10.18731092 35.29945353
v 7.72887115 11.07644594 35.44409362
v 7.72887115 11.89820051 35.61134408
v 8.73671056 -12.82849216 34.59527714
v 8.73671056 -11.96104115 34.41690988
v 8.73671056 -11.02246277 34.26265585
v 8.73671056 -9.99832705 34.13236457
v 8.73671056 -8.86633131 34.02591551
v 8.73671056 -7.58885667 33.94321452
v 8.73671056 8.58897967 34.02591551
v 8.73671056 9.72097541 34.13236457
v 8.73671056 10.74511113 34.26265585
v 8.73671056 11.68368951 34.41690988
v 8.73671056 12.55114052 34.59527714
v 8.66235229 -6.17314457 33.96650954
v 8.65616708 -6.06656515 33.96893390
v 8.61302976 -4.38539616 33.98326904
v 8.60697977 -4.16310583 33.98557481
v 8.59350733 -0.68214161 33.98966000
v 8.59128016 -0.13643249 33.99043828
v 8.60215055 3.37606791 33.98918973
v 8.60385042 3.88914176 33.98887417
v 8.64347746 5.62141462 33.97921489
v 8.64755838 5.78915198 33.97799143
v 8.72364992 7.28825525 33.95619122
v 8.72465136 7.30699502 33.95585844
v 9.62425707 -12.58903848 33.61845999
v 9.58010078 -12.45282389 33.63659923
v 9.39145415 -11.70909769 33.70601387
v 9.28946875 -11.31986424 33.74632618
v 9.18581953 -10.78978042 33.78223926
v 9.05669828 -10.15475396 33.83106235
v 9.00807873 -9.81420205 33.84677587
v 8.87542442 -8.92660172 33.89445080
v 8.85919203 -8.75819386 33.89929176
v 8.73671056 -7.52616664 33.94074111
v 8.74058441 -7.59030220 33.93952465
v 8.74026367 -7.58470107 33.93961188
v 8.73671056 7.44613352 33.95193008
v 8.84920664 8.63439529 33.91929844
v 8.87198305 8.80150189 33.91270018
v 9.02006409 9.85077025 33.86555731
v 9.09924206 10.26991928 33.84016713
v 9.24108146 11.00095112 33.79152459
v 9.43127165 11.76968953 33.72538402
v 9.51853652 12.11550465 33.69355893
v 6.57973181 5.52153291 84.24065553
v 6.55155221 5.43389773 84.24512732
v 6.42644027 5.01539128 84.26527095
v 6.37623978 4.84540544 84.27314309
v 6.28916419 4.52206385 84.28705864
v 6.22563323 4.28319516 84.29699096
v 6.16761107 4.03777322 84.30623812
v 6.09810129 3.74007092 84.31707647
v 6.06158725 3.55793953 84.32288198
v 5.99227239 3.20793551 84.33361659
v 5.97101564 3.07671562 84.33697140
v 5.90704713 2.67699244 84.34679334
v 5.89598137 2.58613866 84.34852781
v 5.84160300 2.13409620 84.35686483
v 5.83674537 2.07438139 84.35762521
v 5.79530277 1.55858043 84.36397222
v 5.79370384 1.52130016 84.36422227
v 5.76769862 0.90742001 84.36820247
v 5.76743166 0.87867182 84.36824419
v 5.75852635 -0.09253927 84.36960689
v 5.75870522 -0.11180915 84.36957894
v 5.76769862 -1.09278412 84.36820247
v 5.76853269 -1.11226368 84.36807211
v 5.79530277 -1.74480400 84.36397222
v 5.79819373 -1.78045225 84.36352013
v 5.84160300 -2.32176130 84.35686483
v 5.84929163 -2.38517525 84.35566131
v 5.90704713 -2.86669512 84.34679334
v 5.92381728 -2.97083954 84.34415219
v 5.99227239 -3.40029165 84.33361659
v 6.02423717 -3.56091124 84.32854677
v 6.09810129 -3.93572202 84.31707647
v 6.15360346 -4.17253692 84.30825197
v 6.22563323 -4.48281692 84.29699096
v 6.31576763 -4.82085127 84.28262598
v 6.37623978 -5.04971629 84.27314309
v 6.51554783 -5.52085838 84.25079660
v 6.55155221 -5.64366687 84.24512732
v 7.63132139 8.24412923 84.06415725
v 7.59916129 8.17053460 84.06961980
v 7.38424804 7.66164011 84.10644153
v 7.28136194 7.41528476 84.12377501
v 7.15560588 7.10168984 84.14523041
v 7.00125861 6.71250201 84.17107695
v 6.94453707 6.56233775 84.18065809
v 6.73027634 5.98398002 84.21620702
v 6.75506420 6.05509002 84.21209436
v 6.75034256 6.04166723 84.21288916
v 6.73027634 -6.19931368 84.21620702
v 6.75506420 -6.27119132 84.21209436
v 6.76376818 -6.29455412 84.21062921
v 7.00125861 -6.93622749 84.17107695
v 7.11174659 -7.21582270 84.15230038
v 7.28136194 -7.64768453 84.12377501
v 7.54211394 -8.27478701 84.07927108
v 7.59916129 -8.41277602 84.06961980
v 7.72887115 8.46490977 84.04729469
v 7.90201248 8.83341186 84.01688804
v 7.72887115 -8.71116808 84.04729469
v 2.18304382 11.21418023 52.03608940
v 2.18461619 11.12961048 52.86981714
v 2.18917293 10.98877140 54.25742053
v 2.21150603 10.92889634 54.84315155
v 2.24674419 10.83981522 55.71381899
v 2.28380449 10.77588639 56.34027295
v 2.32587382 10.70624434 57.02056993
v 2.38104783 10.63276028 57.74495487
v 2.42245189 10.57924715 58.26918541
v 2.50044304 10.49269410 59.13007668
v 2.53509766 10.45502943 59.50105387
v 2.64145195 10.35241428 60.53329641
v 2.66342360 10.33148406 60.74101432
v 2.80445424 10.20992985 61.97999759
v 2.80755499 10.20727183 62.00662717
v 2.81005199 -10.29714013 62.02641858
v 2.80755499 -10.29902125 62.00662717
v 2.68175566 -10.40347465 60.89780447
v 2.66342360 -10.41858226 60.74101432
v 2.56525609 -10.51029035 59.78494264
v 2.53509766 -10.53798645 59.50105387
v 2.46048342 -10.61858593 58.67450175
v 2.42245189 -10.65856901 58.26918541
v 2.36771997 -10.72991785 57.54799486
v 2.32587382 -10.78244955 57.02056993
v 2.28787654 -10.84698972 56.37594758
v 2.24674419 -10.91346686 55.71381899
v 2.22338283 -10.97556131 55.09897058
v 2.18917293 -11.06056517 54.25742053
v 2.18758855 -11.14598839 53.41477272
v 2.18304382 -11.28577621 52.03608940
v 2.21051398 -11.34995182 51.39994214
v 2.25179703 -11.44628934 50.44841321
v 2.27088814 -11.48228471 50.08768657
v 2.29283894 -11.52346902 49.67804405
v 2.31401273 -11.55538636 49.35596995
v 2.33437054 -11.58586190 49.05156508
v 2.35956868 -11.61659703 48.73962428
v 2.37965706 -11.64091852 48.49584650
v 2.41038515 -11.67184926 48.18033874
v 2.43021934 -11.69167719 47.98099448
v 2.46803374 -11.72373577 47.65252560
v 2.48708278 -11.73979260 47.49064373
v 2.53376229 -11.77375741 47.14126293
v 2.55111211 -11.78632708 47.01420288
v 2.60877085 -11.82294343 46.63621039
v 2.62314611 -11.83204734 46.54394825
v 2.69434220 -11.87209594 46.12921037
v 2.70407035 -11.87756147 46.07368086
v 2.79193181 -11.92191011 45.61310402
v 2.79486851 -11.92339275 45.59800244
v 2.79755680 11.83319959 45.58543441
v 2.79486851 11.83205272 45.59800244
v 2.71315268 11.79344394 46.02707245
v 2.70407035 11.78915157 46.07368086
v 2.63682268 11.75349053 46.46603345
v 2.62314611 11.74624892 46.54394825
v 2.56791534 11.71295004 46.90655529
v 2.55111211 11.70285326 47.01420288
v 2.50583047 11.67135796 47.35357761
v 2.48708278 11.65838505 47.49064373
v 2.44998748 11.62812315 47.81325552
v 2.43021934 11.61210467 47.98099448
v 2.39977809 11.58243456 48.29388617
v 2.37965706 11.56297769 48.49584650
v 2.35447900 11.53306940 48.80781396
v 2.33437054 11.50938250 49.05156508
v 2.31304744 11.47791905 49.37613722
v 2.29283894 11.44832987 49.67804405
v 2.27344166 11.41237584 50.04474111
v 2.22283464 11.30574212 51.11934284
v 2.25179703 11.37247464 50.44841321
v 2.82862121 10.19074522 62.17758164
v 2.99694962 10.08017997 63.33282582
v 3.05102132 10.04806938 63.68430254
v 3.21162138 9.95112820 64.71882037
v 3.34554779 9.87773110 65.54366149
v 3.44857676 9.82006802 66.17349183
v 3.68322790 9.70053862 67.55484325
v 3.70950410 9.68681331 67.70858272
v 3.72558161 -9.79990605 67.79902606
v 3.70950410 -9.80735947 67.70858272
v 3.51389826 -9.89992978 66.55479325
v 3.44857676 -9.93228564 66.17349183
v 3.31729964 -9.99957969 65.36315470
v 3.21162138 -10.05578243 64.71882037
v 3.13467225 -10.09881405 64.21738357
v 2.82862121 -10.28317447 62.17758164
v 2.99694962 -10.17798209 63.33282582
v 2.96506691 -10.19761897 63.11098720
v 2.82862121 -11.93885566 45.43700426
v 2.91078891 -11.96957511 45.11493922
v 2.92633714 -11.97486016 45.05825535
v 3.04852751 -12.01664458 44.61826144
v 3.09496460 -12.03120016 44.46154894
v 3.20293777 -12.06526868 44.10123789
v 3.29124691 -12.09099959 43.82322032
v 3.37626838 -12.11594605 43.55823980
v 3.52092115 -12.15540954 43.13043647
v 3.57125835 -12.16924030 42.98289443
v 3.60761651 12.06137980 42.88227870
v 3.57125835 12.05310680 42.98289443
v 3.43997519 12.02153998 43.37195435
v 3.37626838 12.00603645 43.55823980
v 3.28663033 11.98281706 43.84102305
v 3.20293777 11.96089161 44.10123789
v 3.14627803 11.94496196 44.29284171
v 3.04852751 11.91719614 44.61826144
v 3.01779487 11.90774103 44.73052962
v 2.82862121 11.84642642 45.43700426
v 2.91078891 11.87452315 45.11493922
v 2.90020926 11.87092886 45.15705215
v 3.79010370 9.64844386 68.16520130
v 4.03113049 9.55242962 69.36534712
v 4.19057943 9.49554434 70.13441263
v 4.40121279 9.41777876 71.14909061
v 4.49847202 -9.52910489 71.60398564
v 4.40121279 -9.56021565 71.14909061
v 4.22130981 -9.61740083 70.28073747
v 3.79010370 -9.77156268 68.16520130
v 4.03113049 -9.68316766 69.36534712
v 3.96298760 -9.70685202 69.02508547
v 3.79010370 -12.22550737 42.37106276
v 3.79146733 -12.22580192 42.36779291
v 3.79210574 -12.22593126 42.36633023
v 4.07921634 -12.28453638 41.71193347
v 4.23494395 -12.31452871 41.37131878
v 4.40660304 -12.34781754 40.99749598
v 4.49778366 12.21927430 40.80730957
v 4.40660304 12.20521025 40.99749598
v 4.24246921 12.17889315 41.35725601
v 4.07921634 12.15227827 41.71193347
v 4.00757631 12.14007502 41.87642958
v 3.79010370 12.10238855 42.37106276
v 3.79146733 12.10263999 42.36779291
v 3.79115287 12.10258275 42.36855326
v 4.76088025 9.29889240 72.83360444
v 4.81802840 9.28357703 73.07335751
v 4.89012502 9.26667496 73.36777675
v 5.34258878 9.15668410 75.21648269
v 5.48050460 -9.30116278 75.76720950
v 5.34258878 -9.32872694 75.21648269
v 5.12658065 -9.37047137 74.33491260
v 4.76088025 -9.45269892 72.83360444
v 4.81802840 -9.43917513 73.07335751
v 4.79757585 -9.44363004 72.98762388
v 4.76088025 -12.41301003 40.25419289
v 4.78403226 -12.41663880 40.21150608
v 4.80878003 -12.42033110 40.16746226
v 5.27048394 -12.48956226 39.34751371
v 5.43265945 12.33818815 39.06956846
v 5.27048394 12.31977987 39.34751371
v 5.09190316 12.29886583 39.66599968
v 4.76088025 12.25920350 40.25419289
v 4.78403226 12.26210646 40.21150608
v 4.77645465 12.26116912 40.22554652
v 5.74094158 9.07216760 76.80492484
v 5.95911450 9.03804748 77.59252686
v 6.71757537 8.93886899 80.26922414
v 6.72722826 8.93757117 80.30330993
v 6.72853689 -9.15268470 80.30784716
v 6.72722826 -9.15280992 80.30330993
v 6.27863314 -9.19226631 78.72304595
v 5.74094158 -9.25669865 76.80492484
v 5.95911450 -9.22937127 77.59252686
v 5.86339483 -9.23980721 77.24782568
v 5.74094158 -12.55707813 38.53819980
v 5.84681346 -12.57012005 38.37570009
v 6.16914929 -12.60826234 37.89547416
v 6.58394750 -12.65745580 37.27792189
v 6.64841000 12.45211035 37.18467757
v 6.58394750 12.44667804 37.27792189
v 6.21085595 12.41442639 37.83485393
v 5.74094158 12.37254709 38.53819980
v 5.84681346 12.38229272 38.37570009
v 5.80293370 12.37830622 38.44326588
v 6.73027634 8.93723180 80.31385249
v 6.86660977 8.92917727 80.74347273
v 6.73027634 -9.15256545 80.31385249
v 7.21316440 -9.13222828 81.84021450
v 6.73027634 -12.67421200 37.06577534
v 7.53212159 -12.75326621 36.01832313
v 7.63240690 12.51964717 35.89068977
v 6.73027634 12.45887834 37.06577534
v 7.53212159 12.51310088 36.01832313
v 7.12441653 12.48584960 36.55195828
v 7.72887115 8.87793196 83.46088005
v 7.73997144 8.87759839 83.49319300
v 7.75636583 8.87726301 83.54068284
v 7.72887115 -9.12419026 83.46088005
v 7.75636782 -9.12437059 83.54068711
v 7.74062908 -9.12420645 83.49497504
v 7.72887115 -12.77206955 35.76750208
v 8.57093881 -12.84160615 34.79365945
v 7.72887115 12.52581124 35.76750208
v 8.17866929 12.54942893 35.24832351
v 8.73671056 -12.85532149 34.60202131
v 8.78523295 -12.85880687 34.55088266
v 9.01191320 -12.87465348 34.31738376
v 9.37221185 12.60317486 33.94692265
v 8.73671056 12.57796985 34.60202131
v 8.78523295 12.57996142 34.55088266
v 8.75610231 12.57878136 34.58162567
v 9.63116511 12.61331385 33.67975847
v 9.73035291 -12.92493119 33.57734413
v 9.67361859 12.61488872 33.63594075
v 7.92123014 8.87389983 84.01345656
v 7.92159957 -9.12610563 84.01328443
f 1 3 2
f 1 4 3
f 1 5 4
f 1 6 5
f 1 7 6
f 1 8 7
f 1 9 8
f 1 10 9
f 1 11 10
f 1 12 11
f 1 13 12
f 1 14 13
f 1 15 14
f 1 16 15
f 1 17 16
f 1 18 17
f 1 19 18
f 1 20 19
f 1 21 20
f 1 22 21
f 1 23 22
f 1 24 23
f 1 25 24
f 1 26 25
f 1 27 26
f 1 28 27
f 1 29 28
f 1 30 29
f 1 31 30
f 1 32 31
f 1 33 32
f 1 34 33
f 1 35 34
f 1 36 35
f 1 37 36
f 1 38 37
f 1 39 38
f 1 40 39
f 1 41 40
f 1 42 41
f 1 43 42
f 1 44 43
f 1 45 44
f 1 46 45
f 1 47 46
f 1 48 47
f 1 49 48
f 1 50 49
f 1 51 50
f 1 52 51
f 1 53 52
f 1 54 53
f 1 55 54
f 1 56 55
f 1 57 56
f 1 58 57
f 1 59 58
f 1 60 59
f 1 61 60
f 1 62 61
f 1 63 62
f 1 64 63
f 1 65 64
f 1 66 65
f 1 67 66
f 1 68 67
f 1 69 68
f 1 70 69
f 1 71 70
f 1 72 71
f 1 73 72
f 1 74 73
f 1 75 74
f 1 76 75
f 1 77 76
f 1 78 77
f 1 79 78
f 1 80 79
f 1 81 80
f 1 82 81
f 1 83 82
f 1 84 83
f 1 85 84
f 1 86 85
f 1 87 86
f 1 88 87
f 1 89 88
f 1 90 89
f 1 91 90
f 1 92 91
f 1 93 92
f 1 94 93
f 1 95 94
f 1 96 95
f 1 97 96
f 1 98 97
f 1 99 98
f 1 100 99
f 1 101 100
f 1 102 101
f 1 103 102
f 1 104 103
f 1 105 104
f 1 106 105
f 1 107 106
f 1 108 107
f 1 109 108
f 1 110 109
f 1 111 110
f 1 112 111
f 1 113 112
f 1 114 113
f 1 115 114
f 1 116 115
f 1 117 116
f 1 118 117
f 1 119 118
f 1 120 119
f 1 121 120
f 1 122 121
f 1 123 122
f 1 124 123
f 1 125 124
f 1 126 125
f 1 127 126
f 1 128 127
f 1 129 128
f 1 2 129
f 2 3 131
f 2 131 130
f 3 4 132
f 3 132 131
f 4 5 133
f 4 133 132
f 5 6 134
f 5 134 133
f 6 7 135
f 6 135 134
f 7 8 136
f 7 136 135
f 8 9 137
f 8 137 136
f 9 10 138
f 9 138 137
f 10 11 139
f 10 139 138
f 11 12 140
f 11 140 139
f 12 13 141
f 12 141 140
f 13 14 142
f 13 142 141
f 14 15 143
f 14 143 142
f 15 16 144
f 15 144 143
f 16 17 145
f 16 145 144
f 17 18 146
f 17 146 145
f 18 19 147
f 18 147 146
f 19 20 148
f 19 148 147
f 20 21 149
f 20 149 148
f 21 22 150
f 21 150 149
f 22 23 151
f 22 151 150
f 23 24 152
f 23 152 151
f 24 25 153
f 24 153 152
f 25 26 154
f 25 154 153
f 26 27 155
f 26 155 154
f 27 28 156
f 27 156 155
f 28 29 157
f 28 157 156
f 29 30 158
f 29 158 157
f 30 31 159
f 30 159 158
f 31 32 160
f 31 160 159
f 32 33 161
f 32 161 160
f 33 34 162
f 33 162 161
f 34 35 163
f 34 163 162
f 35 36 164
f 35 164 163
f 36 37 165
f 36 165 164
f 37 38 166
f 37 166 165
f 38 39 167
f 38 167 166
f 39 40 168
f 39 168 167
f 40 41 169
f 40 169 168
f 41 42 170
f 41 170 169
f 42 43 171
f 42 171 170
f 43 44 172
f 43 172 171
f 44 45 173
f 44 173 172
f 45 46 174
f 45 174 173
f 46 47 175
f 46 175 174
f 47 48 176
f 47 176 175
f 48 49 177
f 48 177 176
f 49 50 178
f 49 178 177
f 50 51 179
f 50 179 178
f 51 52 180
f 51 180 179
f 52 53 181
f 52 181 180
f 53 54 182
f 53 182 181
f 54 55 183
f 54 183 182
f 55 56 184
f 55 184 183
f 56 57 185
f 56 185 184
f 57 58 186
f 57 186 185
f 58 59 187
f 58 187 186
f 59 60 188
f 59 188 187
f 60 61 189
f 60 189 188
f 61 62 190
f 61 190 189
f 62 63 191
f 62 191 190
f 63 64 192
f 63 192 191
f 64 65 193
f 64 193 192
f 65 66 194
f 65 194 193
f 66 67 195
f 66 195 194
f 67 68 196
f 67 196 195
f 68 69 197
f 68 197 196
f 69 70 198
f 69 198 197
f 70 71 199
f 70 199 198
f 71 72 200
f 71 200 199
f 72 73 201
f 72 201 200
f 73 74 202
f 73 202 201
f 74 75 203
f 74 203 202
f 75 76 204
f 75 204 203
f 76 77 205
f 76 205 204
f 77 78 206
f 77 206 205
f 78 79 207
f 78 207 206
f 79 80 208
f 79 208 207
f 80 81 209
f 80 209 208
f 81 82 210
f 81 210 209
f 82 83 211
f 82 211 210
f 83 84 212
f 83 212 211
f 84 85 213
f 84 213 212
f 85 86 214
f 85 214 213
f 86 87 215
f 86 215 214
f 87 88 216
f 87 216 215
f 88 89 217
f 88 217 216
f 89 90 218
f 89 218 217
f 90 91 219
f 90 219 218
f 91 92 220
f 91 220 219
f 92 93 221
f 92 221 220
f 93 94 222
f 93 222 221
f 94 95 223
f 94 223 222
f 95 96 224
f 95 224 223
f 96 97 225
f 96 225 224
f 97 98 226
f 97 226 225
f 98 99 227
f 98 227 226
f 99 100 228
f 99 228 227
f 100 101 229
f 100 229 228
f 101 102 230
f 101 230 229
f 102 103 231
f 102 231 230
f 103 104 232
f 103 232 231
f 104 105 233
f 104 233 232
f 105 106 234
f 105 234 233
f 106 107 235
f 106 235 234
f 107 108 236
f 107 236 235
f 108 109 237
f 108 237 236
f 109 110 238
f 109 238 237
f 110 111 239
f 110 239 238
f 111 112 240
f 111 240 239
f 112 113 241
f 112 241 240
f 113 114 242
f 113 242 241
f 114 115 243
f 114 243 242
f 115 116 244
f 115 244 243
f 116 117 245
f 116 245 244
f 117 118 246
f 117 246 245
f 118 119 247
f 118 247 246
f 119 120 248
f 119 248 247
f 120 121 249
f 120 249 248
f 121 122 250
f 121 250 249
f 122 123 251
f 122 251 250
f 123 124 252
f 123 252 251
f 124 125 253
f 124 253 252
f 125 126 254
f 125 254 253
f 126 127 255
f 126 255 254
f 127 128 256
f 127 256 255
f 128 129 257
f 128 257 256
f 129 2 130
f 129 130 257
f 137 138 258
f 138 139 259
f 138 259 258
f 139 140 260
f 139 260 259
f 140 141 261
f 140 261 260
f 141 142 262
f 141 262 261
f 142 143 263
f 142 263 262
f 143 144 264
f 143 264 263
f 144 145 265
f 144 265 264
f 145 146 266
f 145 266 265
f 146 147 267
f 146 267 266
f 147 148 268
f 147 268 267
f 148 149 269
f 148 269 268
f 149 150 270
f 149 270 269
f 150 151 271
f 150 271 270
f 151 152 272
f 151 272 271
f 152 153 273
f 152 273 272
f 153 154 274
f 153 274 273
f 154 155 275
f 154 275 274
f 155 156 276
f 155 276 275
f 156 157 277
f 156 277 276
f 157 158 278
f 157 278 277
f 158 159 279
f 158 279 278
f 159 160 280
f 159 280 279
f 160 161 281
f 160 281 280
f 161 162 282
f 161 282 281
f 162 163 283
f 162 283 282
f 163 164 284
f 163 284 283
f 164 165 285
f 164 285 284
f 165 166 286
f 165 286 285
f 166 167 287
f 166 287 286
f 167 168 288
f 167 288 287
f 168 169 289
f 168 289 288
f 169 170 290
f 169 290 289
f 170 171 291
f 170 291 290
f 171 172 292
f 171 292 291
f 172 173 293
f 172 293 292
f 173 174 294
f 173 294 293
f 174 175 295
f 174 295 294
f 175 176 296
f 175 296 295
f 176 177 297
f 176 297 296
f 177 178 298
f 177 298 297
f 178 179 299
f 178 299 298
f 179 180 300
f 179 300 299
f 180 181 301
f 180 301 300
f 181 182 302
f 181 302 301
f 182 183 303
f 182 303 302
f 183 184 304
f 183 304 303
f 184 185 305
f 184 305 304
f 185 186 306
f 185 306 305
f 204 205 307
f 205 206 308
f 205 308 307
f 206 207 309
f 206 309 308
f 207 208 310
f 207 310 309
f 208 209 311
f 208 311 310
f 209 210 312
f 209 312 311
f 210 211 313
f 210 313 312
f 211 212 314
f 211 314 313
f 212 213 315
f 212 315 314
f 213 214 316
f 213 316 315
f 214 215 317
f 214 317 316
f 215 216 318
f 215 318 317
f 216 217 319
f 216 319 318
f 217 218 320
f 217 320 319
f 218 219 321
f 218 321 320
f 219 220 322
f 219 322 321
f 220 221 323
f 220 323 322
f 221 222 324
f 221 324 323
f 222 223 325
f 222 325 324
f 223 224 326
f 223 326 325
f 224 225 327
f 224 327 326
f 225 226 328
f 225 328 327
f 226 227 329
f 226 329 328
f 227 228 330
f 227 330 329
f 228 229 331
f 228 331 330
f 229 230 332
f 229 332 331
f 230 231 333
f 230 333 332
f 231 232 334
f 231 334 333
f 232 233 335
f 232 335 334
f 233 234 336
f 233 336 335
f 234 235 337
f 234 337 336
f 235 236 338
f 235 338 337
f 236 237 339
f 236 339 338
f 237 238 340
f 237 340 339
f 238 239 341
f 238 341 340
f 239 240 342
f 239 342 341
f 240 241 343
f 240 343 342
f 241 242 344
f 241 344 343
f 242 243 345
f 242 345 344
f 243 244 346
f 243 346 345
f 244 245 347
f 244 347 346
f 245 246 348
f 245 348 347
f 246 247 349
f 246 349 348
f 261 262 350
f 262 263 351
f 262 351 350
f 263 264 352
f 263 352 351
f 264 265 353
f 264 353 352
f 265 266 354
f 265 354 353
f 266 267 355
f 266 355 354
f 267 268 356
f 267 356 355
f 268 269 357
f 268 357 356
f 269 270 358
f 269 358 357
f 270 271 359
f 270 359 358
f 271 272 360
f 271 360 359
f 272 273 361
f 272 361 360
f 273 274 362
f 273 362 361
f 274 275 363
f 274 363 362
f 275 276 364
f 275 364 363
f 276 277 365
f 276 365 364
f 277 278 366
f 277 366 365
f 278 279 367
f 278 367 366
f 279 280 368
f 279 368 367
f 280 281 369
f 280 369 368
f 281 282 370
f 281 370 369
f 282 283 371
f 282 371 370
f 283 284 372
f 283 372 371
f 284 285 373
f 284 373 372
f 285 286 374
f 285 374 373
f 286 287 375
f 286 375 374
f 287 288 376
f 287 376 375
f 288 289 377
f 288 377 376
f 289 290 378
f 289 378 377
f 290 291 379
f 290 379 378
f 291 292 380
f 291 380 379
f 292 293 381
f 292 381 380
f 293 294 382
f 293 382 381
f 294 295 383
f 294 383 382
f 295 296 384
f 295 384 383
f 296 297 385
f 296 385 384
f 297 298 386
f 297 386 385
f 298 299 387
f 298 387 386
f 299 300 388
f 299 388 387
f 300 301 389
f 300 389 388
f 301 302 390
f 301 390 389
f 311 312 391
f 312 313 392
f 312 392 391
f 313 314 393
f 313 393 392
f 314 315 394
f 314 394 393
f 315 316 395
f 315 395 394
f 316 317 396
f 316 396 395
f 317 318 397
f 317 397 396
f 318 319 398
f 318 398 397
f 319 320 399
f 319 399 398
f 320 321 400
f 320 400 399
f 321 322 401
f 321 401 400
f 322 323 402
f 322 402 401
f 323 324 403
f 323 403 402
f 324 325 404
f 324 404 403
f 325 326 405
f 325 405 404
f 326 327 406
f 326 406 405
f 327 328 407
f 327 407 406
f 328 329 408
f 328 408 407
f 329 330 409
f 329 409 408
f 330 331 410
f 330 410 409
f 331 332 411
f 331 411 410
f 332 333 412
f 332 412 411
f 333 334 413
f 333 413 412
f 334 335 414
f 334 414 413
f 335 336 415
f 335 415 414
f 336 337 416
f 336 416 415
f 337 338 417
f 337 417 416
f 338 339 418
f 338 418 417
f 339 340 419
f 339 419 418
f 340 341 420
f 340 420 419
f 341 342 421
f 341 421 420
f 342 343 422
f 342 422 421
f 343 344 423
f 343 423 422
f 351 352 424
f 352 353 425
f 352 425 424
f 353 354 426
f 353 426 425
f 354 355 427
f 354 427 426
f 355 356 428
f 355 428 427
f 356 357 429
f 356 429 428
f 357 358 430
f 357 430 429
f 358 359 431
f 358 431 430
f 359 360 432
f 359 432 431
f 360 361 433
f 360 433 432
f 361 362 434
f 361 434 433
f 362 363 435
f 362 435 434
f 363 364 436
f 363 436 435
f 364 365 437
f 364 437 436
f 365 366 438
f 365 438 437
f 366 367 439
f 366 439 438
f 367 368 440
f 367 440 439
f 368 369 441
f 368 441 440
f 369 370 442
f 369 442 441
f 370 371 443
f 370 443 442
f 371 372 444
f 371 444 443
f 372 373 445
f 372 445 444
f 373 374 446
f 373 446 445
f 374 375 447
f 374 447 446
f 375 376 448
f 375 448 447
f 376 377 449
f 376 449 448
f 377 378 450
f 377 450 449
f 378 379 451
f 378 451 450
f 379 380 452
f 379 452 451
f 380 381 453
f 380 453 452
f 381 382 454
f 381 454 453
f 382 383 455
f 382 455 454
f 383 384 456
f 383 456 455
f 384 385 457
f 384 457 456
f 385 386 458
f 385 458 457
f 386 387 459
f 386 459 458
f 387 388 460
f 387 460 459
f 393 394 461
f 394 395 462
f 394 462 461
f 395 396 463
f 395 463 462
f 396 397 464
f 396 464 463
f 397 398 465
f 397 465 464
f 398 399 466
f 398 466 465
f 399 400 467
f 399 467 466
f 400 401 468
f 400 468 467
f 401 402 469
f 401 469 468
f 402 403 470
f 402 470 469
f 403 404 471
f 403 471 470
f 404 405 472
f 404 472 471
f 405 406 473
f 405 473 472
f 406 407 474
f 406 474 473
f 407 408 475
f 407 475 474
f 408 409 476
f 408 476 475
f 409 410 477
f 409 477 476
f 410 411 478
f 410 478 477
f 411 412 479
f 411 479 478
f 412 413 480
f 412 480 479
f 413 414 481
f 413 481 480
f 414 415 482
f 414 482 481
f 415 416 483
f 415 483 482
f 416 417 484
f 416 484 483
f 417 418 485
f 417 485 484
f 418 419 486
f 418 486 485
f 419 420 487
f 419 487 486
f 425 426 488
f 426 427 489
f 426 489 488
f 427 428 490
f 427 490 489
f 428 429 491
f 428 491 490
f 429 430 492
f 429 492 491
f 430 431 493
f 430 493 492
f 431 432 494
f 431 494 493
f 432 433 495
f 432 495 494
f 433 434 496
f 433 496 495
f 434 435 497
f 434 497 496
f 435 436 498
f 435 498 497
f 436 437 499
f 436 499 498
f 437 438 500
f 437 500 499
f 438 439 501
f 438 501 500
f 439 440 502
f 439 502 501
f 440 441 503
f 440 503 502
f 441 442 504
f 441 504 503
f 442 443 505
f 442 505 504
f 443 444 506
f 443 506 505
f 444 445 507
f 444 507 506
f 445 446 508
f 445 508 507
f 446 447 509
f 446 509 508
f 447 448 510
f 447 510 509
f 448 449 511
f 448 511 510
f 449 450 512
f 449 512 511
f 450 451 513
f 450 513 512
f 451 452 514
f 451 514 513
f 452 453 515
f 452 515 514
f 453 454 516
f 453 516 515
f 454 455 517
f 454 517 516
f 455 456 518
f 455 518 517
f 456 457 519
f 456 519 518
f 457 458 520
f 457 520 519
f 462 463 521
f 463 464 522
f 463 522 521
f 464 465 523
f 464 523 522
f 465 466 524
f 465 524 523
f 466 467 525
f 466 525 524
f 467 468 526
f 467 526 525
f 468 469 527
f 468 527 526
f 469 470 528
f 469 528 527
f 470 471 529
f 470 529 528
f 471 472 530
f 471 530 529
f 472 473 531
f 472 531 530
f 473 474 532
f 473 532 531
f 474 475 533
f 474 533 532
f 475 476 534
f 475 534 533
f 476 477 535
f 476 535 534
f 477 478 536
f 477 536 535
f 478 479 537
f 478 537 536
f 479 480 538
f 479 538 537
f 480 481 539
f 480 539 538
f 481 482 540
f 481 540 539
f 482 483 541
f 482 541 540
f 483 484 542
f 483 542 541
f 484 485 543
f 484 543 542
f 489 490 544
f 490 491 545
f 490 545 544
f 491 492 546
f 491 546 545
f 492 493 547
f 492 547 546
f 493 494 548
f 493 548 547
f 513 514 549
f 514 515 550
f 514 550 549
f 515 516 551
f 515 551 550
f 516 517 552
f 516 552 551
f 517 518 553
f 517 553 552
f 522 523 554
f 523 524 555
f 523 555 554
f 524 525 556
f 524 556 555
f 525 526 557
f 525 557 556
f 526 527 558
f 526 558 557
f 527 528 559
f 527 559 558
f 528 529 560
f 528 560 559
f 529 530 561
f 529 561 560
f 530 531 562
f 530 562 561
f 531 532 563
f 531 563 562
f 532 533 564
f 532 564 563
f 533 534 565
f 533 565 564
f 534 535 566
f 534 566 565
f 535 536 567
f 535 567 566
f 536 537 568
f 536 568 567
f 537 538 569
f 537 569 568
f 538 539 570
f 538 570 569
f 539 540 571
f 539 571 570
f 540 541 572
f 540 572 571
f 552 553 574
f 554 555 575
f 555 556 576
f 555 576 575
f 556 557 577
f 556 577 576
f 557 558 578
f 557 578 577
f 558 559 579
f 558 579 578
f 559 560 580
f 559 580 579
f 560 561 581
f 560 581 580
f 561 562 582
f 561 582 581
f 562 563 583
f 562 583 582
f 563 564 584
f 563 584 583
f 564 565 585
f 564 585 584
f 565 566 586
f 565 586 585
f 566 567 587
f 566 587 586
f 567 568 588
f 567 588 587
f 568 569 589
f 568 589 588
f 569 570 590
f 569 590 589
f 570 571 591
f 570 591 590
f 575 576 593
f 575 593 592
f 576 577 594
f 576 594 593
f 577 578 595
f 577 595 594
f 578 579 596
f 578 596 595
f 579 580 597
f 579 597 596
f 586 587 598
f 587 588 599
f 587 599 598
f 588 589 600
f 588 600 599
f 589 590 601
f 589 601 600
f 590 591 602
f 590 602 601
f 581 605 604
f 582 607 606
f 583 609 608
f 584 611 610
f 585 613 612
f 593 617 616
f 594 619 618
f 595 621 620
f 596 623 622
f 597 624 626
f 597 626 625
f 598 628 627
f 598 629 628
f 599 631 630
f 600 633 632
f 603 580 581
f 624 597 580
f 605 581 582
f 607 582 583
f 609 583 584
f 611 584 585
f 613 585 586
f 614 586 598
f 615 592 593
f 617 593 594
f 619 594 595
f 621 595 596
f 623 596 597
f 629 598 599
f 631 599 600
f 633 600 601
f 603 581 604
f 624 580 603
f 605 582 606
f 607 583 608
f 609 584 610
f 611 585 612
f 613 586 614
f 614 598 627
f 615 593 616
f 617 594 618
f 619 595 620
f 621 596 622
f 623 597 625
f 629 599 630
f 631 600 632
f 633 601 634
f 495 637 636
f 496 639 638
f 497 641 640
f 498 643 642
f 499 645 644
f 500 647 646
f 501 649 648
f 502 651 650
f 503 653 652
f 504 655 654
f 505 657 656
f 506 659 658
f 507 661 660
f 508 663 662
f 509 665 664
f 510 667 666
f 511 669 668
f 512 671 670
f 545 675 674
f 546 677 676
f 547 679 678
f 548 680 682
f 548 682 681
f 549 684 683
f 549 685 684
f 550 687 686
f 551 689 688
f 573 691 692
f 635 494 495
f 680 548 494
f 637 495 496
f 639 496 497
f 641 497 498
f 643 498 499
f 645 499 500
f 647 500 501
f 649 501 502
f 651 502 503
f 653 503 504
f 655 504 505
f 657 505 506
f 659 506 507
f 661 507 508
f 663 508 509
f 665 509 510
f 667 510 511
f 669 511 512
f 671 512 513
f 672 513 549
f 673 544 545
f 691 573 544
f 675 545 546
f 677 546 547
f 679 547 548
f 685 549 550
f 687 550 551
f 689 551 552
f 690 552 574
f 635 495 636
f 680 494 635
f 637 496 638
f 639 497 640
f 641 498 642
f 643 499 644
f 645 500 646
f 647 501 648
f 649 502 650
f 651 503 652
f 653 504 654
f 655 505 656
f 657 506 658
f 659 507 660
f 661 508 662
f 663 509 664
f 665 510 666
f 667 511 668
f 669 512 670
f 671 513 672
f 672 549 683
f 673 545 674
f 691 544 673
f 675 546 676
f 677 547 678
f 679 548 681
f 685 550 686
f 687 551 688
f 689 552 690
f 690 574 693
f 130 695 694
f 131 697 696
f 132 699 698
f 133 701 700
f 134 703 702
f 135 705 704
f 136 707 706
f 187 711 710
f 188 713 712
f 189 715 714
f 190 717 716
f 191 719 718
f 192 721 720
f 193 723 722
f 194 725 724
f 195 727 726
f 196 729 728
f 197 731 730
f 198 733 732
f 199 735 734
f 200 737 736
f 201 739 738
f 202 741 740
f 203 743 742
f 248 747 746
f 249 749 748
f 250 751 750
f 251 753 752
f 252 755 754
f 253 757 756
f 254 759 758
f 255 761 760
f 256 763 762
f 257 764 765
f 258 767 766
f 258 768 767
f 259 770 769
f 260 772 771
f 303 776 775
f 304 778 777
f 305 780 779
f 306 781 783
f 306 783 782
f 307 785 784
f 307 786 785
f 308 788 787
f 309 790 789
f 310 792 791
f 345 796 795
f 346 798 797
f 347 800 799
f 348 802 801
f 349 803 805
f 349 805 804
f 350 807 806
f 350 808 807
f 389 812 811
f 390 813 815
f 390 815 814
f 391 817 816
f 391 818 817
f 392 820 819
f 421 824 823
f 422 826 825
f 423 827 829
f 423 829 828
f 424 831 830
f 424 832 831
f 459 836 835
f 460 837 839
f 460 839 838
f 461 841 840
f 461 842 841
f 486 846 845
f 487 847 849
f 487 849 848
f 488 851 850
f 488 852 851
f 519 856 855
f 520 857 859
f 520 859 858
f 521 861 860
f 521 862 861
f 542 866 865
f 543 867 869
f 543 869 868
f 573 880 871
f 553 872 873
f 554 875 874
f 572 877 879
f 572 879 878
f 592 890 887
f 591 888 889
f 592 891 890
f 602 894 896
f 602 896 895
f 592 892 891
f 634 897 899
f 574 885 884
f 573 881 880
f 574 883 885
f 573 882 881
f 695 130 131
f 697 131 132
f 699 132 133
f 701 133 134
f 703 134 135
f 705 135 136
f 707 136 137
f 708 137 258
f 709 186 187
f 781 306 186
f 711 187 188
f 713 188 189
f 715 189 190
f 717 190 191
f 719 191 192
f 721 192 193
f 723 193 194
f 725 194 195
f 727 195 196
f 729 196 197
f 731 197 198
f 733 198 199
f 735 199 200
f 737 200 201
f 739 201 202
f 741 202 203
f 743 203 204
f 744 204 307
f 745 247 248
f 803 349 247
f 747 248 249
f 749 249 250
f 751 250 251
f 753 251 252
f 755 252 253
f 757 253 254
f 759 254 255
f 761 255 256
f 763 256 257
f 764 257 130
f 768 258 259
f 770 259 260
f 772 260 261
f 773 261 350
f 774 302 303
f 813 390 302
f 776 303 304
f 778 304 305
f 780 305 306
f 786 307 308
f 788 308 309
f 790 309 310
f 792 310 311
f 793 311 391
f 794 344 345
f 827 423 344
f 796 345 346
f 798 346 347
f 800 347 348
f 802 348 349
f 808 350 351
f 809 351 424
f 810 388 389
f 837 460 388
f 812 389 390
f 818 391 392
f 820 392 393
f 821 393 461
f 822 420 421
f 847 487 420
f 824 421 422
f 826 422 423
f 832 424 425
f 833 425 488
f 834 458 459
f 857 520 458
f 836 459 460
f 842 461 462
f 843 462 521
f 844 485 486
f 867 543 485
f 846 486 487
f 852 488 489
f 853 489 544
f 854 518 519
f 872 553 518
f 856 519 520
f 862 521 522
f 863 522 554
f 864 541 542
f 877 572 541
f 866 542 543
f 870 544 573
f 883 574 553
f 875 554 575
f 876 571 572
f 888 591 571
f 886 575 592
f 894 602 591
f 893 601 602
f 897 634 601
f 892 592 615
f 882 573 692
f 901 693 574
f 695 131 696
f 697 132 698
f 699 133 700
f 701 134 702
f 703 135 704
f 705 136 706
f 707 137 708
f 708 258 766
f 709 187 710
f 781 186 709
f 711 188 712
f 713 189 714
f 715 190 716
f 717 191 718
f 719 192 720
f 721 193 722
f 723 194 724
f 725 195 726
f 727 196 728
f 729 197 730
f 731 198 732
f 733 199 734
f 735 200 736
f 737 201 738
f 739 202 740
f 741 203 742
f 743 204 744
f 744 307 784
f 745 248 746
f 803 247 745
f 747 249 748
f 749 250 750
f 751 251 752
f 753 252 754
f 755 253 756
f 757 254 758
f 759 255 760
f 761 256 762
f 763 257 765
f 764 130 694
f 768 259 769
f 770 260 771
f 772 261 773
f 773 350 806
f 774 303 775
f 813 302 774
f 776 304 777
f 778 305 779
f 780 306 782
f 786 308 787
f 788 309 789
f 790 310 791
f 792 311 793
f 793 391 816
f 794 345 795
f 827 344 794
f 796 346 797
f 798 347 799
f 800 348 801
f 802 349 804
f 808 351 809
f 809 424 830
f 810 389 811
f 837 388 810
f 812 390 814
f 818 392 819
f 820 393 821
f 821 461 840
f 822 421 823
f 847 420 822
f 824 422 825
f 826 423 828
f 832 425 833
f 833 488 850
f 834 459 835
f 857 458 834
f 836 460 838
f 842 462 843
f 843 521 860
f 844 486 845
f 867 485 844
f 846 487 848
f 852 489 853
f 853 544 870
f 854 519 855
f 872 518 854
f 856 520 858
f 862 522 863
f 863 554 874
f 864 542 865
f 877 541 864
f 866 543 868
f 870 573 871
f 883 553 873
f 875 575 886
f 876 572 878
f 888 571 876
f 886 592 887
f 894 591 889
f 893 602 895
f 897 601 893
f 892 615 898
f 882 692 900
f 901 574 884

