  0
SECTION
  2
HEADER
  9
$ACADVER
  1
AC1024
  9
$ACADMAINTVER
 70
6
  9
$DWGCODEPAGE
  3
ANSI_1252
  9
$LASTSAVEDBY
  1
ezdxf
  9
$INSBASE
 10
0.0
 20
0.0
 30
0.0
  9
$EXTMIN
 10
1e+20
 20
1e+20
 30
1e+20
  9
$EXTMAX
 10
-1e+20
 20
-1e+20
 30
-1e+20
  9
$LIMMIN
 10
0.0
 20
0.0
  9
$LIMMAX
 10
420.0
 20
297.0
  9
$ORTHOMODE
 70
0
  9
$REGENMODE
 70
1
  9
$FILLMODE
 70
1
  9
$QTEXTMODE
 70
0
  9
$MIRRTEXT
 70
1
  9
$LTSCALE
 40
1.0
  9
$ATTMODE
 70
1
  9
$TEXTSIZE
 40
2.5
  9
$TRACEWID
 40
1.0
  9
$TEXTSTYLE
  7
OpenSans
  9
$CLAYER
  8
0
  9
$CELTYPE
  6
ByLayer
  9
$CECOLOR
 62
256
  9
$CELTSCALE
 40
1.0
  9
$DISPSILH
 70
0
  9
$DIMSCALE
 40
1.0
  9
$DIMASZ
 40
0.175
  9
$DIMEXO
 40
0.125
  9
$DIMDLI
 40
3.75
  9
$DIMRND
 40
0.0
  9
$DIMDLE
 40
0.0
  9
$DIMEXE
 40
0.375
  9
$DIMTP
 40
0.0
  9
$DIMTM
 40
0.0
  9
$DIMTXT
 40
0.25
  9
$DIMCEN
 40
2.5
  9
$DIMTSZ
 40
0.0
  9
$DIMTOL
 70
0
  9
$DIMLIM
 70
0
  9
$DIMTIH
 70
0
  9
$DIMTOH
 70
0
  9
$DIMSE1
 70
0
  9
$DIMSE2
 70
0
  9
$DIMTAD
 70
1
  9
$DIMZIN
 70
12
  9
$DIMBLK
  1
ARCHTICK
  9
$DIMASO
 70
1
  9
$DIMSHO
 70
1
  9
$DIMPOST
  1

  9
$DIMAPOST
  1

  9
$DIMALT
 70
0
  9
$DIMALTD
 70
3
  9
$DIMALTF
 40
0.03937007874
  9
$DIMLFAC
 40
100.0
  9
$DIMTOFL
 70
1
  9
$DIMTVP
 40
0.0
  9
$DIMTIX
 70
0
  9
$DIMSOXD
 70
0
  9
$DIMSAH
 70
0
  9
$DIMBLK1
  1

  9
$DIMBLK2
  1

  9
$DIMSTYLE
  2
EZDXF
  9
$DIMCLRD
 70
0
  9
$DIMCLRE
 70
0
  9
$DIMCLRT
 70
0
  9
$DIMTFAC
 40
0.5
  9
$DIMGAP
 40
0.1
  9
$DIMJUST
 70
0
  9
$DIMSD1
 70
0
  9
$DIMSD2
 70
0
  9
$DIMTOLJ
 70
0
  9
$DIMTZIN
 70
8
  9
$DIMALTZ
 70
0
  9
$DIMALTTZ
 70
0
  9
$DIMUPT
 70
1
  9
$DIMDEC
 70
2
  9
$DIMTDEC
 70
2
  9
$DIMALTU
 70
2
  9
$DIMALTTD
 70
3
  9
$DIMTXSTY
  7
OpenSansCondensed-Light
  9
$DIMAUNIT
 70
0
  9
$DIMADEC
 70
2
  9
$DIMALTRND
 40
0.0
  9
$DIMAZIN
 70
3
  9
$DIMDSEP
 70
46
  9
$DIMATFIT
 70
3
  9
$DIMFRAC
 70
0
  9
$DIMLDRBLK
  1

  9
$DIMLUNIT
 70
2
  9
$DIMLWD
 70
-2
  9
$DIMLWE
 70
-2
  9
$DIMTMOVE
 70
2
  9
$DIMFXL
 40
1.0
  9
$DIMFXLON
 70
0
  9
$DIMJOGANG
 40
0.785398163397
  9
$DIMTFILL
 70
0
  9
$DIMTFILLCLR
 70
0
  9
$DIMARCSYM
 70
0
  9
$DIMLTYPE
  6

  9
$DIMLTEX1
  6

  9
$DIMLTEX2
  6

  9
$DIMTXTDIRECTION
 70
0
  9
$LUNITS
 70
2
  9
$LUPREC
 70
4
  9
$SKETCHINC
 40
1.0
  9
$FILLETRAD
 40
10.0
  9
$AUNITS
 70
0
  9
$AUPREC
 70
2
  9
$MENU
  1
.
  9
$ELEVATION
 40
0.0
  9
$PELEVATION
 40
0.0
  9
$THICKNESS
 40
0.0
  9
$LIMCHECK
 70
0
  9
$CHAMFERA
 40
0.0
  9
$CHAMFERB
 40
0.0
  9
$CHAMFERC
 40
0.0
  9
$CHAMFERD
 40
0.0
  9
$SKPOLY
 70
0
  9
$TDCREATE
 40
2461315.8994907406
  9
$TDUCREATE
 40
2458532.153996898
  9
$TDUPDATE
 40
2461315.8994907406
  9
$TDUUPDATE
 40
2458532.1544311
  9
$TDINDWG
 40
0.0
  9
$TDUSRTIMER
 40
0.0
  9
$USRTIMER
 70
1
  9
$ANGBASE
 50
0.0
  9
$ANGDIR
 70
0
  9
$PDMODE
 70
0
  9
$PDSIZE
 40
0.0
  9
$PLINEWID
 40
0.0
  9
$SPLFRAME
 70
0
  9
$SPLINETYPE
 70
6
  9
$SPLINESEGS
 70
8
  9
$HANDSEED
  5
AD
  9
$SURFTAB1
 70
6
  9
$SURFTAB2
 70
6
  9
$SURFTYPE
 70
6
  9
$SURFU
 70
6
  9
$SURFV
 70
6
  9
$UCSBASE
  2

  9
$UCSNAME
  2

  9
$UCSORG
 10
0.0
 20
0.0
 30
0.0
  9
$UCSXDIR
 10
1.0
 20
0.0
 30
0.0
  9
$UCSYDIR
 10
0.0
 20
1.0
 30
0.0
  9
$UCSORTHOREF
  2

  9
$UCSORTHOVIEW
 70
0
  9
$UCSORGTOP
 10
0.0
 20
0.0
 30
0.0
  9
$UCSORGBOTTOM
 10
0.0
 20
0.0
 30
0.0
  9
$UCSORGLEFT
 10
0.0
 20
0.0
 30
0.0
  9
$UCSORGRIGHT
 10
0.0
 20
0.0
 30
0.0
  9
$UCSORGFRONT
 10
0.0
 20
0.0
 30
0.0
  9
$UCSORGBACK
 10
0.0
 20
0.0
 30
0.0
  9
$PUCSBASE
  2

  9
$PUCSNAME
  2

  9
$PUCSORG
 10
0.0
 20
0.0
 30
0.0
  9
$PUCSXDIR
 10
1.0
 20
0.0
 30
0.0
  9
$PUCSYDIR
 10
0.0
 20
1.0
 30
0.0
  9
$PUCSORTHOREF
  2

  9
$PUCSORTHOVIEW
 70
0
  9
$PUCSORGTOP
 10
0.0
 20
0.0
 30
0.0
  9
$PUCSORGBOTTOM
 10
0.0
 20
0.0
 30
0.0
  9
$PUCSORGLEFT
 10
0.0
 20
0.0
 30
0.0
  9
$PUCSORGRIGHT
 10
0.0
 20
0.0
 30
0.0
  9
$PUCSORGFRONT
 10
0.0
 20
0.0
 30
0.0
  9
$PUCSORGBACK
 10
0.0
 20
0.0
 30
0.0
  9
$USERI1
 70
0
  9
$USERI2
 70
0
  9
$USERI3
 70
0
  9
$USERI4
 70
0
  9
$USERI5
 70
0
  9
$USERR1
 40
0.0
  9
$USERR2
 40
0.0
  9
$USERR3
 40
0.0
  9
$USERR4
 40
0.0
  9
$USERR5
 40
0.0
  9
$WORLDVIEW
 70
1
  9
$SHADEDGE
 70
3
  9
$SHADEDIF
 70
70
  9
$TILEMODE
 70
1
  9
$MAXACTVP
 70
64
  9
$PINSBASE
 10
0.0
 20
0.0
 30
0.0
  9
$PLIMCHECK
 70
0
  9
$PEXTMIN
 10
1e+20
 20
1e+20
 30
1e+20
  9
$PEXTMAX
 10
-1e+20
 20
-1e+20
 30
-1e+20
  9
$PLIMMIN
 10
0.0
 20
0.0
  9
$PLIMMAX
 10
420.0
 20
297.0
  9
$UNITMODE
 70
0
  9
$VISRETAIN
 70
1
  9
$PLINEGEN
 70
0
  9
$PSLTSCALE
 70
1
  9
$TREEDEPTH
 70
3020
  9
$CMLSTYLE
  2
Standard
  9
$CMLJUST
 70
0
  9
$CMLSCALE
 40
20.0
  9
$PROXYGRAPHICS
 70
1
  9
$MEASUREMENT
 70
1
  9
$CELWEIGHT
370
-1
  9
$ENDCAPS
280
0
  9
$JOINSTYLE
280
0
  9
$LWDISPLAY
290
0
  9
$INSUNITS
 70
4
  9
$HYPERLINKBASE
  1

  9
$STYLESHEET
  1

  9
$XEDIT
290
1
  9
$CEPSNTYPE
380
0
  9
$PSTYLEMODE
290
1
  9
$FINGERPRINTGUID
  2
{405BFE74-5B18-4E7A-B250-FF324F251608}
  9
$VERSIONGUID
  2
{F570C341-6DBC-43AF-A5AB-142550327FCB}
  9
$EXTNAMES
290
1
  9
$PSVPSCALE
 40
0.0
  9
$OLESTARTUP
290
0
  9
$SORTENTS
280
127
  9
$INDEXCTL
280
0
  9
$HIDETEXT
280
1
  9
$XCLIPFRAME
280
1
  9
$HALOGAP
280
0
  9
$OBSCOLOR
 70
257
  9
$OBSLTYPE
280
0
  9
$INTERSECTIONDISPLAY
280
0
  9
$INTERSECTIONCOLOR
 70
257
  9
$DIMASSOC
280
2
  9
$PROJECTNAME
  1

  9
$CAMERADISPLAY
290
0
  9
$LENSLENGTH
 40
50.0
  9
$CAMERAHEIGHT
 40
0.0
  9
$STEPSPERSEC
 40
24.0
  9
$STEPSIZE
 40
100.0
  9
$3DDWFPREC
 40
2.0
  9
$PSOLWIDTH
 40
0.005
  9
$PSOLHEIGHT
 40
0.08
  9
$LOFTANG1
 40
1.570796326795
  9
$LOFTANG2
 40
1.570796326795
  9
$LOFTMAG1
 40
0.0
  9
$LOFTMAG2
 40
0.0
  9
$LOFTPARAM
 70
7
  9
$LOFTNORMALS
280
1
  9
$LATITUDE
 40
37.795
  9
$LONGITUDE
 40
-122.394
  9
$NORTHDIRECTION
 40
0.0
  9
$TIMEZONE
 70
-8000
  9
$LIGHTGLYPHDISPLAY
280
1
  9
$TILEMODELIGHTSYNCH
280
1
  9
$CMATERIAL
347
20
  9
$SOLIDHIST
280
0
  9
$SHOWHIST
280
1
  9
$DWFFRAME
280
2
  9
$DGNFRAME
280
2
  9
$REALWORLDSCALE
290
1
  9
$INTERFERECOLOR
 62
256
  9
$CSHADOW
280
0
  9
$SHADOWPLANELOCATION
 40
0.0
  0
ENDSEC
  0
SECTION
  2
CLASSES
  0
CLASS
  1
ACDBDICTIONARYWDFLT
  2
AcDbDictionaryWithDefault
  3
ObjectDBX Classes
 90
0
 91
0
280
0
281
0
  0
CLASS
  1
SUN
  2
AcDbSun
  3
SCENEOE
 90
1153
 91
0
280
0
281
0
  0
CLASS
  1
VISUALSTYLE
  2
AcDbVisualStyle
  3
ObjectDBX Classes
 90
4095
 91
0
280
0
281
0
  0
CLASS
  1
MATERIAL
  2
AcDbMaterial
  3
ObjectDBX Classes
 90
1153
 91
0
280
0
281
0
  0
CLASS
  1
SCALE
  2
AcDbScale
  3
ObjectDBX Classes
 90
1153
 91
0
280
0
281
0
  0
CLASS
  1
TABLESTYLE
  2
AcDbTableStyle
  3
ObjectDBX Classes
 90
4095
 91
0
280
0
281
0
  0
CLASS
  1
MLEADERSTYLE
  2
AcDbMLeaderStyle
  3
ACDB_MLEADERSTYLE_CLASS
 90
4095
 91
0
280
0
281
0
  0
CLASS
  1
DICTIONARYVAR
  2
AcDbDictionaryVar
  3
ObjectDBX Classes
 90
0
 91
0
280
0
281
0
  0
CLASS
  1
CELLSTYLEMAP
  2
AcDbCellStyleMap
  3
ObjectDBX Classes
 90
1152
 91
0
280
0
281
0
  0
CLASS
  1
MENTALRAYRENDERSETTINGS
  2
AcDbMentalRayRenderSettings
  3
SCENEOE
 90
1024
 91
0
280
0
281
0
  0
CLASS
  1
ACDBDETAILVIEWSTYLE
  2
AcDbDetailViewStyle
  3
ObjectDBX Classes
 90
1025
 91
0
280
0
281
0
  0
CLASS
  1
ACDBSECTIONVIEWSTYLE
  2
AcDbSectionViewStyle
  3
ObjectDBX Classes
 90
1025
 91
0
280
0
281
0
  0
CLASS
  1
RASTERVARIABLES
  2
AcDbRasterVariables
  3
ISM
 90
0
 91
0
280
0
281
0
  0
CLASS
  1
LAYOUT
  2
AcDbLayout
  3
ObjectDBX Classes
 90
0
 91
0
280
0
281
0
  0
CLASS
  1
ACDBPLACEHOLDER
  2
AcDbPlaceHolder
  3
ObjectDBX Classes
 90
0
 91
0
280
0
281
0
  0
ENDSEC
  0
SECTION
  2
TABLES
  0
TABLE
  2
VPORT
  5
8
330
0
100
AcDbSymbolTable
 70
1
  0
VPORT
  5
23
330
8
100
AcDbSymbolTableRecord
100
AcDbViewportTableRecord
  2
*Active
 70
0
 10
0.0
 20
0.0
 11
1.0
 21
1.0
 12
0.0
 22
0.0
 13
0.0
 23
0.0
 14
0.5
 24
0.5
 15
0.5
 25
0.5
 16
0.0
 26
0.0
 36
1.0
 17
0.0
 27
0.0
 37
0.0
 40
1000.0
 41
1.34
 42
50.0
 43
0.0
 44
0.0
 50
0.0
 51
0.0
 71
0
 72
1000
 73
1
 74
3
 75
0
 76
0
 77
0
 78
0
281
0
 65
0
146
0.0
  0
ENDTAB
  0
TABLE
  2
LTYPE
  5
2
330
0
100
AcDbSymbolTable
 70
21
  0
LTYPE
  5
24
330
2
100
AcDbSymbolTableRecord
100
AcDbLinetypeTableRecord
  2
ByBlock
 70
0
  3

 72
65
 73
0
 40
0.0
  0
LTYPE
  5
25
330
2
100
AcDbSymbolTableRecord
100
AcDbLinetypeTableRecord
  2
ByLayer
 70
0
  3

 72
65
 73
0
 40
0.0
  0
LTYPE
  5
26
330
2
100
AcDbSymbolTableRecord
100
AcDbLinetypeTableRecord
  2
Continuous
 70
0
  3

 72
65
 73
0
 40
0.0
  0
LTYPE
  5
2F
330
2
100
AcDbSymbolTableRecord
100
AcDbLinetypeTableRecord
  2
CENTER
 70
0
  3
Center ____ _ ____ _ ____ _ ____ _ ____ _ ____
 72
65
 73
4
 40
5.08
 49
3.175
 74
0
 49
-0.635
 74
0
 49
0.635
 74
0
 49
-0.635
 74
0
  0
LTYPE
  5
30
330
2
100
AcDbSymbolTableRecord
100
AcDbLinetypeTableRecord
  2
CENTERX2
 70
0
  3
Center (2x) ________  __  ________  __  ________
 72
65
 73
4
 40
8.89
 49
6.35
 74
0
 49
-0.635
 74
0
 49
1.27
 74
0
 49
-0.635
 74
0
  0
LTYPE
  5
31
330
2
100
AcDbSymbolTableRecord
100
AcDbLinetypeTableRecord
  2
CENTER2
 70
0
  3
Center (.5x) ____ _ ____ _ ____ _ ____ _ ____
 72
65
 73
4
 40
2.54
 49
1.587
 74
0
 49
-0.318
 74
0
 49
0.318
 74
0
 49
-0.318
 74
0
  0
LTYPE
  5
32
330
2
100
AcDbSymbolTableRecord
100
AcDbLinetypeTableRecord
  2
DASHED
 70
0
  3
Dashed __ __ __ __ __ __ __ __ __ __ __ __ __ _
 72
65
 73
2
 40
1.524
 49
1.27
 74
0
 49
-0.254
 74
0
  0
LTYPE
  5
33
330
2
100
AcDbSymbolTableRecord
100
AcDbLinetypeTableRecord
  2
DASHEDX2
 70
0
  3
Dashed (2x) ____  ____  ____  ____  ____  ____
 72
65
 73
2
 40
3.048
 49
2.54
 74
0
 49
-0.508
 74
0
  0
LTYPE
  5
34
330
2
100
AcDbSymbolTableRecord
100
AcDbLinetypeTableRecord
  2
DASHED2
 70
0
  3
Dashed (.5x) _ _ _ _ _ _ _ _ _ _ _ _ _ _
 72
65
 73
2
 40
0.762
 49
0.635
 74
0
 49
-0.127
 74
0
  0
LTYPE
  5
35
330
2
100
AcDbSymbolTableRecord
100
AcDbLinetypeTableRecord
  2
PHANTOM
 70
0
  3
Phantom ______  __  __  ______  __  __  ______
 72
65
 73
6
 40
6.35
 49
3.175
 74
0
 49
-0.635
 74
0
 49
0.635
 74
0
 49
-0.635
 74
0
 49
0.635
 74
0
 49
-0.635
 74
0
  0
LTYPE
  5
36
330
2
100
AcDbSymbolTableRecord
100
AcDbLinetypeTableRecord
  2
PHANTOMX2
 70
0
  3
Phantom (2x)____________    ____    ____    ____________
 72
65
 73
6
 40
10.795
 49
6.35
 74
0
 49
-0.635
 74
0
 49
1.27
 74
0
 49
-0.635
 74
0
 49
1.27
 74
0
 49
-0.635
 74
0
  0
LTYPE
  5
37
330
2
100
AcDbSymbolTableRecord
100
AcDbLinetypeTableRecord
  2
PHANTOM2
 70
0
  3
Phantom (.5x) ___ _ _ ___ _ _ ___ _ _ ___ _ _ ___
 72
65
 73
6
 40
3.175
 49
1.587
 74
0
 49
-0.318
 74
0
 49
0.318
 74
0
 49
-0.318
 74
0
 49
0.318
 74
0
 49
-0.318
 74
0
  0
LTYPE
  5
38
330
2
100
AcDbSymbolTableRecord
100
AcDbLinetypeTableRecord
  2
DASHDOT
 70
0
  3
Dash dot __ . __ . __ . __ . __ . __ . __ . __
 72
65
 73
4
 40
3.556
 49
2.54
 74
0
 49
-0.508
 74
0
 49
0.0
 74
0
 49
-0.508
 74
0
  0
LTYPE
  5
39
330
2
100
AcDbSymbolTableRecord
100
AcDbLinetypeTableRecord
  2
DASHDOTX2
 70
0
  3
Dash dot (2x) ____  .  ____  .  ____  .  ____
 72
65
 73
4
 40
6.096
 49
5.08
 74
0
 49
-0.508
 74
0
 49
0.0
 74
0
 49
-0.508
 74
0
  0
LTYPE
  5
3A
330
2
100
AcDbSymbolTableRecord
100
AcDbLinetypeTableRecord
  2
DASHDOT2
 70
0
  3
Dash dot (.5x) _ . _ . _ . _ . _ . _ . _ . _
 72
65
 73
4
 40
1.778
 49
1.27
 74
0
 49
-0.254
 74
0
 49
0.0
 74
0
 49
-0.254
 74
0
  0
LTYPE
  5
3B
330
2
100
AcDbSymbolTableRecord
100
AcDbLinetypeTableRecord
  2
DOT
 70
0
  3
Dot .  .  .  .  .  .  .  .  .  .  .  .  .  .  .  .
 72
65
 73
2
 40
0.508
 49
0.0
 74
0
 49
-0.508
 74
0
  0
LTYPE
  5
3C
330
2
100
AcDbSymbolTableRecord
100
AcDbLinetypeTableRecord
  2
DOTX2
 70
0
  3
Dot (2x) .    .    .    .    .    .    .    . 
 72
65
 73
2
 40
1.016
 49
0.0
 74
0
 49
-1.016
 74
0
  0
LTYPE
  5
3D
330
2
100
AcDbSymbolTableRecord
100
AcDbLinetypeTableRecord
  2
DOT2
 70
0
  3
Dot (.5) . . . . . . . . . . . . . . . . . . . 
 72
65
 73
2
 40
0.254
 49
0.0
 74
0
 49
-0.254
 74
0
  0
LTYPE
  5
3E
330
2
100
AcDbSymbolTableRecord
100
AcDbLinetypeTableRecord
  2
DIVIDE
 70
0
  3
Divide __ . . __ . . __ . . __ . . __ . . __
 72
65
 73
6
 40
4.064
 49
2.54
 74
0
 49
-0.508
 74
0
 49
0.0
 74
0
 49
-0.508
 74
0
 49
0.0
 74
0
 49
-0.508
 74
0
  0
LTYPE
  5
3F
330
2
100
AcDbSymbolTableRecord
100
AcDbLinetypeTableRecord
  2
DIVIDEX2
 70
0
  3
Divide (2x) ____  . .  ____  . .  ____  . .  ____
 72
65
 73
6
 40
6.604
 49
5.08
 74
0
 49
-0.508
 74
0
 49
0.0
 74
0
 49
-0.508
 74
0
 49
0.0
 74
0
 49
-0.508
 74
0
  0
LTYPE
  5
40
330
2
100
AcDbSymbolTableRecord
100
AcDbLinetypeTableRecord
  2
DIVIDE2
 70
0
  3
Divide(.5x) _ . _ . _ . _ . _ . _ . _ . _
 72
65
 73
6
 40
2.032
 49
1.27
 74
0
 49
-0.254
 74
0
 49
0.0
 74
0
 49
-0.254
 74
0
 49
0.0
 74
0
 49
-0.254
 74
0
  0
ENDTAB
  0
TABLE
  2
LAYER
  5
1
330
0
100
AcDbSymbolTable
 70
11
  0
LAYER
  5
27
330
1
100
AcDbSymbolTableRecord
100
AcDbLayerTableRecord
  2
0
 70
0
 62
7
  6
Continuous
370
-3
390
13
347
21
  0
LAYER
  5
28
330
1
100
AcDbSymbolTableRecord
100
AcDbLayerTableRecord
  2
Defpoints
 70
0
 62
7
  6
Continuous
290
0
370
-3
390
13
347
21
  0
LAYER
  5
8A
330
1
100
AcDbSymbolTableRecord
100
AcDbLayerTableRecord
  2
TAGLIO
 70
0
 62
7
  6
CONTINUOUS
370
-3
390
13
347
21
  0
LAYER
  5
8B
330
1
100
AcDbSymbolTableRecord
100
AcDbLayerTableRecord
  2
MONTAGGIO
 70
0
 62
5
  6
DOT
370
-3
390
13
347
21
  0
LAYER
  5
8C
330
1
100
AcDbSymbolTableRecord
100
AcDbLayerTableRecord
  2
CUCITURA
 70
0
 62
1
  6
DASHED
370
-3
390
13
347
21
  0
LAYER
  5
8D
330
1
100
AcDbSymbolTableRecord
100
AcDbLayerTableRecord
  2
SCARNITURA
 70
0
 62
8
  6
DASHDOT
370
-3
390
13
347
21
  0
LAYER
  5
8E
330
1
100
AcDbSymbolTableRecord
100
AcDbLayerTableRecord
  2
RIFERIMENTO
 70
0
 62
3
  6
CONTINUOUS
370
-3
390
13
347
21
  0
LAYER
  5
8F
330
1
100
AcDbSymbolTableRecord
100
AcDbLayerTableRecord
  2
ASSE
 70
0
 62
6
  6
CENTER
370
-3
390
13
347
21
  0
LAYER
  5
90
330
1
100
AcDbSymbolTableRecord
100
AcDbLayerTableRecord
  2
FORI
 70
0
 62
7
  6
CONTINUOUS
370
-3
390
13
347
21
  0
LAYER
  5
91
330
1
100
AcDbSymbolTableRecord
100
AcDbLayerTableRecord
  2
TACCHE
 70
0
 62
7
  6
CONTINUOUS
370
-3
390
13
347
21
  0
LAYER
  5
92
330
1
100
AcDbSymbolTableRecord
100
AcDbLayerTableRecord
  2
TESTO
 70
0
 62
7
  6
CONTINUOUS
370
-3
390
13
347
21
  0
ENDTAB
  0
TABLE
  2
STYLE
  5
5
330
0
100
AcDbSymbolTable
 70
26
  0
STYLE
  5
29
330
5
100
AcDbSymbolTableRecord
100
AcDbTextStyleTableRecord
  2
Standard
 70
0
 40
0.0
 41
1.0
 50
0.0
 71
0
 42
2.5
  3
txt
  4

  0
STYLE
  5
41
330
5
100
AcDbSymbolTableRecord
100
AcDbTextStyleTableRecord
  2
OpenSans-Light
 70
0
 40
0.0
 41
1.0
 50
0.0
 71
0
 42
2.5
  3
OpenSans-Light.ttf
  4

  0
STYLE
  5
42
330
5
100
AcDbSymbolTableRecord
100
AcDbTextStyleTableRecord
  2
OpenSans-Light-Italic
 70
0
 40
0.0
 41
1.0
 50
0.0
 71
0
 42
2.5
  3
OpenSans-LightItalic.ttf
  4

  0
STYLE
  5
43
330
5
100
AcDbSymbolTableRecord
100
AcDbTextStyleTableRecord
  2
OpenSans
 70
0
 40
0.0
 41
1.0
 50
0.0
 71
0
 42
2.5
  3
OpenSans-Regular.ttf
  4

  0
STYLE
  5
44
330
5
100
AcDbSymbolTableRecord
100
AcDbTextStyleTableRecord
  2
OpenSans-Italic
 70
0
 40
0.0
 41
1.0
 50
0.0
 71
0
 42
2.5
  3
OpenSans-Italic.ttf
  4

  0
STYLE
  5
45
330
5
100
AcDbSymbolTableRecord
100
AcDbTextStyleTableRecord
  2
OpenSans-SemiBold
 70
0
 40
0.0
 41
1.0
 50
0.0
 71
0
 42
2.5
  3
OpenSans-SemiBold.ttf
  4

  0
STYLE
  5
46
330
5
100
AcDbSymbolTableRecord
100
AcDbTextStyleTableRecord
  2
OpenSans-SemiBoldItalic
 70
0
 40
0.0
 41
1.0
 50
0.0
 71
0
 42
2.5
  3
OpenSans-SemiBoldItalic.ttf
  4

  0
STYLE
  5
47
330
5
100
AcDbSymbolTableRecord
100
AcDbTextStyleTableRecord
  2
OpenSans-Bold
 70
0
 40
0.0
 41
1.0
 50
0.0
 71
0
 42
2.5
  3
OpenSans-Bold.ttf
  4

  0
STYLE
  5
48
330
5
100
AcDbSymbolTableRecord
100
AcDbTextStyleTableRecord
  2
OpenSans-BoldItalic
 70
0
 40
0.0
 41
1.0
 50
0.0
 71
0
 42
2.5
  3
OpenSans-BoldItalic.ttf
  4

  0
STYLE
  5
49
330
5
100
AcDbSymbolTableRecord
100
AcDbTextStyleTableRecord
  2
OpenSans-ExtraBold
 70
0
 40
0.0
 41
1.0
 50
0.0
 71
0
 42
2.5
  3
OpenSans-ExtraBold.ttf
  4

  0
STYLE
  5
4A
330
5
100
AcDbSymbolTableRecord
100
AcDbTextStyleTableRecord
  2
OpenSans-ExtraBoldItalic
 70
0
 40
0.0
 41
1.0
 50
0.0
 71
0
 42
2.5
  3
OpenSans-ExtraBoldItalic.ttf
  4

  0
STYLE
  5
4B
330
5
100
AcDbSymbolTableRecord
100
AcDbTextStyleTableRecord
  2
OpenSansCondensed-Bold
 70
0
 40
0.0
 41
1.0
 50
0.0
 71
0
 42
2.5
  3
OpenSansCondensed-Bold.ttf
  4

  0
STYLE
  5
4C
330
5
100
AcDbSymbolTableRecord
100
AcDbTextStyleTableRecord
  2
OpenSansCondensed-Light
 70
0
 40
0.0
 41
1.0
 50
0.0
 71
0
 42
2.5
  3
OpenSansCondensed-Light.ttf
  4

  0
STYLE
  5
4D
330
5
100
AcDbSymbolTableRecord
100
AcDbTextStyleTableRecord
  2
OpenSansCondensed-Italic
 70
0
 40
0.0
 41
1.0
 50
0.0
 71
0
 42
2.5
  3
OpenSansCondensed-LightItalic.ttf
  4

  0
STYLE
  5
4E
330
5
100
AcDbSymbolTableRecord
100
AcDbTextStyleTableRecord
  2
LiberationSans
 70
0
 40
0.0
 41
1.0
 50
0.0
 71
0
 42
2.5
  3
LiberationSans-Regular.ttf
  4

  0
STYLE
  5
4F
330
5
100
AcDbSymbolTableRecord
100
AcDbTextStyleTableRecord
  2
LiberationSans-Bold
 70
0
 40
0.0
 41
1.0
 50
0.0
 71
0
 42
2.5
  3
LiberationSans-Bold.ttf
  4

  0
STYLE
  5
50
330
5
100
AcDbSymbolTableRecord
100
AcDbTextStyleTableRecord
  2
LiberationSans-BoldItalic
 70
0
 40
0.0
 41
1.0
 50
0.0
 71
0
 42
2.5
  3
LiberationSans-BoldItalic.ttf
  4

  0
STYLE
  5
51
330
5
100
AcDbSymbolTableRecord
100
AcDbTextStyleTableRecord
  2
LiberationSans-Italic
 70
0
 40
0.0
 41
1.0
 50
0.0
 71
0
 42
2.5
  3
LiberationSans-Italic.ttf
  4

  0
STYLE
  5
52
330
5
100
AcDbSymbolTableRecord
100
AcDbTextStyleTableRecord
  2
LiberationSerif
 70
0
 40
0.0
 41
1.0
 50
0.0
 71
0
 42
2.5
  3
LiberationSerif-Regular.ttf
  4

  0
STYLE
  5
53
330
5
100
AcDbSymbolTableRecord
100
AcDbTextStyleTableRecord
  2
LiberationSerif-Bold
 70
0
 40
0.0
 41
1.0
 50
0.0
 71
0
 42
2.5
  3
LiberationSerif-Bold.ttf
  4

  0
STYLE
  5
54
330
5
100
AcDbSymbolTableRecord
100
AcDbTextStyleTableRecord
  2
LiberationSerif-BoldItalic
 70
0
 40
0.0
 41
1.0
 50
0.0
 71
0
 42
2.5
  3
LiberationSerif-BoldItalic.ttf
  4

  0
STYLE
  5
55
330
5
100
AcDbSymbolTableRecord
100
AcDbTextStyleTableRecord
  2
LiberationSerif-Italic
 70
0
 40
0.0
 41
1.0
 50
0.0
 71
0
 42
2.5
  3
LiberationSerif-Italic.ttf
  4

  0
STYLE
  5
56
330
5
100
AcDbSymbolTableRecord
100
AcDbTextStyleTableRecord
  2
LiberationMono
 70
0
 40
0.0
 41
1.0
 50
0.0
 71
0
 42
2.5
  3
LiberationMono-Regular.ttf
  4

  0
STYLE
  5
57
330
5
100
AcDbSymbolTableRecord
100
AcDbTextStyleTableRecord
  2
LiberationMono-Bold
 70
0
 40
0.0
 41
1.0
 50
0.0
 71
0
 42
2.5
  3
LiberationMono-Bold.ttf
  4

  0
STYLE
  5
58
330
5
100
AcDbSymbolTableRecord
100
AcDbTextStyleTableRecord
  2
LiberationMono-BoldItalic
 70
0
 40
0.0
 41
1.0
 50
0.0
 71
0
 42
2.5
  3
LiberationMono-BoldItalic.ttf
  4

  0
STYLE
  5
59
330
5
100
AcDbSymbolTableRecord
100
AcDbTextStyleTableRecord
  2
LiberationMono-Italic
 70
0
 40
0.0
 41
1.0
 50
0.0
 71
0
 42
2.5
  3
LiberationMono-Italic.ttf
  4

  0
ENDTAB
  0
TABLE
  2
VIEW
  5
7
330
0
100
AcDbSymbolTable
 70
0
  0
ENDTAB
  0
TABLE
  2
UCS
  5
6
330
0
100
AcDbSymbolTable
 70
0
  0
ENDTAB
  0
TABLE
  2
APPID
  5
3
330
0
100
AcDbSymbolTable
 70
3
  0
APPID
  5
2A
330
3
100
AcDbSymbolTableRecord
100
AcDbRegAppTableRecord
  2
ACAD
 70
0
  0
APPID
  5
AA
330
3
100
AcDbSymbolTableRecord
100
AcDbRegAppTableRecord
  2
HATCHBACKGROUNDCOLOR
 70
0
  0
APPID
  5
AB
330
3
100
AcDbSymbolTableRecord
100
AcDbRegAppTableRecord
  2
EZDXF
 70
0
  0
ENDTAB
  0
TABLE
  2
DIMSTYLE
  5
4
330
0
100
AcDbSymbolTable
 70
12
100
AcDbDimStyleTable
  0
DIMSTYLE
105
2B
330
4
100
AcDbSymbolTableRecord
100
AcDbDimStyleTableRecord
  2
Standard
 70
0
 40
1.0
 41
2.5
 42
0.625
 43
3.75
 44
1.25
 45
0.0
 46
0.0
 47
0.0
 48
0.0
 49
2.5
140
2.5
141
2.5
142
0.0
143
0.03937007874
144
1.0
145
0.0
146
1.0
147
0.625
148
0.0
 69
0
 70
0
 71
0
 72
0
 73
0
 74
0
 75
0
 76
0
 77
1
 78
8
 79
3
170
0
171
3
172
1
173
0
174
0
175
0
176
0
177
0
178
0
179
2
271
2
272
2
273
2
274
3
275
0
276
0
277
2
278
44
279
0
280
0
281
0
282
0
283
0
284
8
285
0
286
0
288
0
289
3
290
0
371
-2
372
-2
  0
DIMSTYLE
105
73
330
4
100
AcDbSymbolTableRecord
100
AcDbDimStyleTableRecord
  2
EZDXF
 70
0
 40
1.0
 41
0.175
 42
0.125
 43
3.75
 44
0.375
 45
0.0
 46
0.0
 47
0.0
 48
0.0
 49
2.5
140
0.25
141
2.5
142
0.0
143
0.03937007874
144
100.0
145
0.0
146
0.5
147
0.1
148
0.0
 69
0
 70
0
 71
0
 72
0
 73
0
 74
0
 75
0
 76
0
 77
1
 78
12
 79
3
170
0
171
3
172
1
173
0
174
0
175
0
176
0
177
0
178
0
179
2
271
2
272
2
273
2
274
3
275
0
276
0
277
2
278
46
279
2
280
0
281
0
282
0
283
0
284
8
285
0
286
0
288
1
289
3
290
0
340
4C
342
74
371
-2
372
-2
  0
DIMSTYLE
105
7C
330
4
100
AcDbSymbolTableRecord
100
AcDbDimStyleTableRecord
  2
EZ_M_100_H25_CM
 70
0
 40
1.0
 41
0.25
 42
0.125
 43
3.75
 44
0.375
 45
0.0
 46
0.0
 47
0.0
 48
0.0
 49
2.5
140
0.25
141
2.5
142
0.125
143
0.03937007874
144
100.0
145
0.0
146
0.5
147
0.1
148
0.0
 69
0
 70
0
 71
0
 72
0
 73
0
 74
0
 75
0
 76
0
 77
1
 78
12
 79
3
170
0
171
3
172
1
173
0
174
0
175
0
176
0
177
0
178
0
179
2
271
2
272
2
273
2
274
3
275
0
276
0
277
2
278
46
279
2
280
0
281
0
282
0
283
0
284
8
285
0
286
0
288
1
289
3
290
0
340
4C
371
-2
372
-2
  0
DIMSTYLE
105
7D
330
4
100
AcDbSymbolTableRecord
100
AcDbDimStyleTableRecord
  2
EZ_M_50_H25_CM
 70
0
 40
1.0
 41
0.125
 42
0.0625
 43
3.75
 44
0.1875
 45
0.0
 46
0.0
 47
0.0
 48
0.0
 49
2.5
140
0.125
141
2.5
142
0.0625
143
0.03937007874
144
100.0
145
0.0
146
0.5
147
0.05
148
0.0
 69
0
 70
0
 71
0
 72
0
 73
0
 74
0
 75
0
 76
0
 77
1
 78
12
 79
3
170
0
171
3
172
1
173
0
174
0
175
0
176
0
177
0
178
0
179
2
271
2
272
2
273
2
274
3
275
0
276
0
277
2
278
46
279
2
280
0
281
0
282
0
283
0
284
8
285
0
286
0
288
1
289
3
290
0
340
4C
371
-2
372
-2
  0
DIMSTYLE
105
7E
330
4
100
AcDbSymbolTableRecord
100
AcDbDimStyleTableRecord
  2
EZ_M_25_H25_CM
 70
0
 40
1.0
 41
0.0625
 42
0.03125
 43
3.75
 44
0.09375
 45
0.0
 46
0.0
 47
0.0
 48
0.0
 49
2.5
140
0.0625
141
2.5
142
0.03125
143
0.03937007874
144
100.0
145
0.0
146
0.5
147
0.025
148
0.0
 69
0
 70
0
 71
0
 72
0
 73
0
 74
0
 75
0
 76
0
 77
1
 78
12
 79
3
170
0
171
3
172
1
173
0
174
0
175
0
176
0
177
0
178
0
179
2
271
2
272
2
273
2
274
3
275
0
276
0
277
2
278
46
279
2
280
0
281
0
282
0
283
0
284
8
285
0
286
0
288
1
289
3
290
0
340
4C
371
-2
372
-2
  0
DIMSTYLE
105
7F
330
4
100
AcDbSymbolTableRecord
100
AcDbDimStyleTableRecord
  2
EZ_M_20_H25_CM
 70
0
 40
1.0
 41
0.05
 42
0.025
 43
3.75
 44
0.07500000000000001
 45
0.0
 46
0.0
 47
0.0
 48
0.0
 49
2.5
140
0.05
141
2.5
142
0.025
143
0.03937007874
144
100.0
145
0.0
146
0.5
147
0.020000000000000004
148
0.0
 69
0
 70
0
 71
0
 72
0
 73
0
 74
0
 75
0
 76
0
 77
1
 78
12
 79
3
170
0
171
3
172
1
173
0
174
0
175
0
176
0
177
0
178
0
179
2
271
2
272
2
273
2
274
3
275
0
276
0
277
2
278
46
279
2
280
0
281
0
282
0
283
0
284
8
285
0
286
0
288
1
289
3
290
0
340
4C
371
-2
372
-2
  0
DIMSTYLE
105
80
330
4
100
AcDbSymbolTableRecord
100
AcDbDimStyleTableRecord
  2
EZ_M_10_H25_CM
 70
0
 40
1.0
 41
0.025
 42
0.0125
 43
3.75
 44
0.037500000000000006
 45
0.0
 46
0.0
 47
0.0
 48
0.0
 49
2.5
140
0.025
141
2.5
142
0.0125
143
0.03937007874
144
100.0
145
0.0
146
0.5
147
0.010000000000000002
148
0.0
 69
0
 70
0
 71
0
 72
0
 73
0
 74
0
 75
0
 76
0
 77
1
 78
12
 79
3
170
0
171
3
172
1
173
0
174
0
175
0
176
0
177
0
178
0
179
2
271
2
272
2
273
2
274
3
275
0
276
0
277
2
278
46
279
2
280
0
281
0
282
0
283
0
284
8
285
0
286
0
288
1
289
3
290
0
340
4C
371
-2
372
-2
  0
DIMSTYLE
105
81
330
4
100
AcDbSymbolTableRecord
100
AcDbDimStyleTableRecord
  2
EZ_M_5_H25_CM
 70
0
 40
1.0
 41
0.0125
 42
0.00625
 43
3.75
 44
0.018750000000000003
 45
0.0
 46
0.0
 47
0.0
 48
0.0
 49
2.5
140
0.0125
141
2.5
142
0.00625
143
0.03937007874
144
100.0
145
0.0
146
0.5
147
0.005000000000000001
148
0.0
 69
0
 70
0
 71
0
 72
0
 73
0
 74
0
 75
0
 76
0
 77
1
 78
12
 79
3
170
0
171
3
172
1
173
0
174
0
175
0
176
0
177
0
178
0
179
2
271
2
272
2
273
2
274
3
275
0
276
0
277
2
278
46
279
2
280
0
281
0
282
0
283
0
284
8
285
0
286
0
288
1
289
3
290
0
340
4C
371
-2
372
-2
  0
DIMSTYLE
105
82
330
4
100
AcDbSymbolTableRecord
100
AcDbDimStyleTableRecord
  2
EZ_M_1_H25_CM
 70
0
 40
1.0
 41
0.0025
 42
0.00125
 43
3.75
 44
0.00375
 45
0.0
 46
0.0
 47
0.0
 48
0.0
 49
2.5
140
0.0025
141
2.5
142
0.00125
143
0.03937007874
144
100.0
145
0.0
146
0.5
147
0.001
148
0.0
 69
0
 70
0
 71
0
 72
0
 73
0
 74
0
 75
0
 76
0
 77
1
 78
12
 79
3
170
0
171
3
172
1
173
0
174
0
175
0
176
0
177
0
178
0
179
2
271
2
272
2
273
2
274
3
275
0
276
0
277
2
278
46
279
2
280
0
281
0
282
0
283
0
284
8
285
0
286
0
288
1
289
3
290
0
340
4C
371
-2
372
-2
  0
DIMSTYLE
105
83
330
4
100
AcDbSymbolTableRecord
100
AcDbDimStyleTableRecord
  2
EZ_RADIUS
 70
0
 40
1.0
 41
0.25
 42
0.125
 43
3.75
 44
0.375
 45
0.0
 46
0.0
 47
0.0
 48
0.0
 49
2.5
140
0.25
141
0.0
142
0.0
143
0.03937007874
144
100.0
145
0.0
146
0.5
147
0.1
148
0.0
 69
0
 70
0
 71
0
 72
0
 73
0
 74
0
 75
0
 76
0
 77
1
 78
12
 79
3
170
0
171
3
172
0
173
0
174
0
175
0
176
0
177
0
178
0
179
2
271
2
272
2
273
2
274
3
275
0
276
0
277
2
278
46
279
1
280
0
281
0
282
0
283
0
284
8
285
0
286
0
288
1
289
3
290
0
340
4C
342
84
371
-2
372
-2
  0
DIMSTYLE
105
88
330
4
100
AcDbSymbolTableRecord
100
AcDbDimStyleTableRecord
  2
EZ_RADIUS_INSIDE
 70
0
 40
1.0
 41
0.25
 42
0.125
 43
3.75
 44
0.375
 45
0.0
 46
0.0
 47
0.0
 48
0.0
 49
2.5
140
0.25
141
0.0
142
0.0
143
0.03937007874
144
100.0
145
0.0
146
0.5
147
0.1
148
0.0
 69
0
 70
0
 71
0
 72
0
 73
0
 74
0
 75
0
 76
0
 77
0
 78
12
 79
3
170
0
171
3
172
0
173
0
174
1
175
0
176
0
177
0
178
0
179
2
271
2
272
2
273
2
274
3
275
0
276
0
277
2
278
46
279
0
280
0
281
0
282
0
283
0
284
8
285
0
286
0
288
1
289
0
290
0
340
4C
342
84
371
-2
372
-2
  0
DIMSTYLE
105
89
330
4
100
AcDbSymbolTableRecord
100
AcDbDimStyleTableRecord
  2
EZ_CURVED
 70
0
 40
1.0
 41
0.25
 42
0.125
 43
3.75
 44
0.375
 45
0.0
 46
0.0
 47
0.0
 48
0.0
 49
2.5
140
0.25
141
2.5
142
0.0
143
0.03937007874
144
100.0
145
0.0
146
0.5
147
0.1
148
0.0
 69
0
 70
0
 71
0
 72
0
 73
0
 74
0
 75
0
 76
0
 77
1
 78
12
 79
2
 90
2
170
0
171
3
172
1
173
0
174
0
175
0
176
0
177
0
178
0
179
2
271
2
272
2
273
2
274
3
275
0
276
0
277
2
278
46
279
2
280
0
281
0
282
0
283
0
284
8
285
0
286
0
288
1
289
3
290
0
340
4C
371
-2
372
-2
  0
ENDTAB
  0
TABLE
  2
BLOCK_RECORD
  5
9
330
0
100
AcDbSymbolTable
 70
5
  0
BLOCK_RECORD
  5
17
330
9
100
AcDbSymbolTableRecord
100
AcDbBlockTableRecord
  2
*Model_Space
340
1A
 70
0
280
1
281
0
  0
BLOCK_RECORD
  5
1B
330
9
100
AcDbSymbolTableRecord
100
AcDbBlockTableRecord
  2
*Paper_Space
340
1E
 70
0
280
1
281
0
  0
BLOCK_RECORD
  5
74
330
9
100
AcDbSymbolTableRecord
100
AcDbBlockTableRecord
  2
_ARCHTICK
340
0
 70
0
280
1
281
0
  0
BLOCK_RECORD
  5
78
330
9
100
AcDbSymbolTableRecord
100
AcDbBlockTableRecord
  2
_CLOSEDFILLED
340
0
 70
0
280
1
281
0
  0
BLOCK_RECORD
  5
84
330
9
100
AcDbSymbolTableRecord
100
AcDbBlockTableRecord
  2
_CLOSEDBLANK
340
0
 70
0
280
1
281
0
  0
ENDTAB
  0
ENDSEC
  0
SECTION
  2
BLOCKS
  0
BLOCK
  5
18
330
17
100
AcDbEntity
  8
0
100
AcDbBlockBegin
  2
*Model_Space
 70
0
 10
0.0
 20
0.0
 30
0.0
  3
*Model_Space
  1

  0
ENDBLK
  5
19
330
17
100
AcDbEntity
  8
0
100
AcDbBlockEnd
  0
BLOCK
  5
1C
330
1B
100
AcDbEntity
  8
0
100
AcDbBlockBegin
  2
*Paper_Space
 70
0
 10
0.0
 20
0.0
 30
0.0
  3
*Paper_Space
  1

  0
ENDBLK
  5
1D
330
1B
100
AcDbEntity
  8
0
100
AcDbBlockEnd
  0
BLOCK
  5
75
330
74
100
AcDbEntity
  8
0
100
AcDbBlockBegin
  2
_ARCHTICK
 70
0
 10
0.0
 20
0.0
 30
0.0
  3
_ARCHTICK
  1

  0
LWPOLYLINE
  5
77
330
74
100
AcDbEntity
  8
0
  6
BYBLOCK
 62
0
100
AcDbPolyline
 90
2
 70
0
 43
0.15
 10
-0.5
 20
-0.5
 10
0.5
 20
0.5
  0
ENDBLK
  5
76
330
74
100
AcDbEntity
  8
0
100
AcDbBlockEnd
  0
BLOCK
  5
79
330
78
100
AcDbEntity
  8
0
100
AcDbBlockBegin
  2
_CLOSEDFILLED
 70
0
 10
0.0
 20
0.0
 30
0.0
  3
_CLOSEDFILLED
  1

  0
SOLID
  5
7B
330
78
100
AcDbEntity
  8
0
  6
BYBLOCK
 62
0
100
AcDbTrace
 10
-1.0
 20
0.16439898372402537
 30
0.0
 11
0.0
 21
0.0
 31
0.0
 12
-1.0
 22
-0.16439898372402537
 32
0.0
 13
-1.0
 23
-0.16439898372402537
 33
0.0
  0
ENDBLK
  5
7A
330
78
100
AcDbEntity
  8
0
100
AcDbBlockEnd
  0
BLOCK
  5
85
330
84
100
AcDbEntity
  8
0
100
AcDbBlockBegin
  2
_CLOSEDBLANK
 70
0
 10
0.0
 20
0.0
 30
0.0
  3
_CLOSEDBLANK
  1

  0
LWPOLYLINE
  5
87
330
84
100
AcDbEntity
  8
0
  6
BYBLOCK
 62
0
100
AcDbPolyline
 90
3
 70
1
 10
-1.0
 20
0.16439898372402537
 10
0.0
 20
0.0
 10
-1.0
 20
-0.16439898372402537
  0
ENDBLK
  5
86
330
84
100
AcDbEntity
  8
0
100
AcDbBlockEnd
  0
ENDSEC
  0
SECTION
  2
ENTITIES
  0
LWPOLYLINE
  5
93
330
17
100
AcDbEntity
  8
TAGLIO
100
AcDbPolyline
 90
77
 70
0
 10
17.31799143619125
 20
48.592384831253156
 10
18.363691323300625
 20
48.522127636330126
 10
18.930924356881032
 20
48.719395372220724
 10
23.561001908626494
 20
48.431481815282964
 10
26.720988441609727
 20
48.29213150253722
 10
38.57613086652784
 20
47.9054394309175
 10
58.79434650328418
 20
46.751018464514814
 10
66.37719588732212
 20
46.42099404531292
 10
71.78079250083874
 20
46.28563130226816
 10
76.86198963818553
 20
46.29816372822008
 10
83.7896827321478
 20
46.496429877425136
 10
96.84275717810253
 20
47.14561466046226
 10
111.37460460760447
 20
47.77017070699882
 10
110.6406984140139
 20
44.978992893615555
 10
110.21874300983231
 20
43.102337189321716
 10
109.51420643660465
 20
39.27620123470195
 10
109.23969865226998
 20
37.32572788953796
 10
108.83934039485315
 20
33.26306628335494
 10
108.7150482189758
 20
31.114596094897955
 10
108.63881460365279
 20
28.81066357265068
 10
108.61810114326504
 20
26.019745819827406
 10
108.64090919773648
 20
23.21846528228589
 10
108.71804547392948
 20
20.914667074422205
 10
108.8425306139053
 20
18.766072080858034
 10
109.21827888082395
 20
14.886024315741302
 10
109.51449525035774
 20
12.752287831237274
 10
110.17921840410635
 20
9.101539606145847
 10
110.63219457423327
 20
7.055765999140174
 10
111.36083442862297
 20
4.264363602822417
 10
100.56588907235594
 20
4.032976354165207
 10
88.96776102688008
 20
3.5335991485990412
 10
82.49527022914586
 20
3.1817921326470966
 10
68.2588418130816
 20
2.2751987910102542
 10
56.3676659469859
 20
1.692527565247989
 10
40.879852368279195
 20
0.7713945209541713
 10
36.68095100729456
 20
0.5847309855725982
 10
31.794211244975227
 20
0.42705635968206934
 10
23.809538291580374
 20
0.2636305946615174
 10
20.706860323672444
 20
0.1521671452943103
 10
18.360387978325537
 20
0.0
 10
17.573023062448527
 20
0.240512226962597
 10
16.26994539107985
 20
0.46291030629626917
 10
15.113511412192517
 20
0.8887437771607409
 10
12.19733683117
 20
2.391021779576281
 10
11.527149531880735
 20
2.7909480467933037
 10
10.181855272201197
 20
3.842497269159633
 10
9.156598478337607
 20
4.714510774340422
 10
7.340668827850454
 20
6.569739398725455
 10
5.927074652918979
 20
8.289191191157874
 10
4.716375267537414
 20
10.033935471898497
 10
3.7658139888832234
 20
11.584839028843042
 10
2.9078893851310323
 20
13.128516498539295
 10
1.7232220909648612
 20
15.9410747298732
 10
0.899674752451373
 20
18.3321302373677
 10
0.30685577672408504
 20
20.629052793222737
 10
0.1216681707945283
 20
21.937631162974085
 10
0.01905689945816047
 20
23.558562231445947
 10
0.0
 20
25.179152030318193
 10
0.09783385694995206
 20
27.071491353624477
 10
0.26113899530450935
 20
28.47854907548593
 10
0.6759074969491041
 20
30.589757624993524
 10
0.9737776547224731
 20
31.743912298920808
 10
1.3400287478396158
 20
32.90189832345307
 10
1.7964804770037537
 20
34.1058919128824
 10
2.3530000519457372
 20
35.376201459557564
 10
3.038336490927242
 20
36.719403403478495
 10
3.8500827590929982
 20
38.15424887363542
 10
4.412851136271864
 20
39.03592794615824
 10
5.975791752344309
 20
41.22500958307006
 10
7.399145268955641
 20
42.873171937601754
 10
9.15957843487771
 20
44.57599442766646
 10
11.456994277089258
 20
46.31864121911711
 10
13.036074918510385
 20
47.14120804569035
 10
14.945201965148224
 20
48.060144437585805
 10
15.666094734773269
 20
48.275413591943746
 10
16.89290235532247
 20
48.42895745756785
 10
17.31799143619125
 20
48.592384831253156
  0
LWPOLYLINE
  5
94
330
17
100
AcDbEntity
  8
SCARNITURA
100
AcDbPolyline
 90
50
 70
0
 10
106.86489984010413
 20
5.633442533555533
 10
106.66645310325482
 20
6.461853267296
 10
106.48530655572513
 20
7.273510134080903
 10
106.30097512207684
 20
8.101343457811529
 10
106.13534114057373
 20
8.936632780662261
 10
105.9754381355909
 20
9.752319190358902
 10
105.8228662768494
 20
10.591372639056242
 10
105.68377299340315
 20
11.4146064382385
 10
105.54532897806784
 20
12.261072436623152
 10
105.42817037827948
 20
13.099772283768825
 10
105.31357225153151
 20
13.919293606199734
 10
105.20679921675884
 20
14.770833404359376
 10
105.11489723065934
 20
15.602299277296622
 10
105.0246730612322
 20
16.448317942332
 10
104.95310025349515
 20
17.289677685376276
 10
104.88326584560089
 20
18.116822073010482
 10
104.82390536754346
 20
18.96807564671921
 10
104.77632074108436
 20
19.790512945838238
 10
104.72816394747882
 20
20.627203407200774
 10
104.69507412631052
 20
21.477453342235727
 10
104.6688114870567
 20
22.289967118177223
 10
104.64162641457307
 20
23.142719746874935
 10
104.63642751774921
 20
23.989128511744074
 10
104.62919949908472
 20
24.782433791409066
 10
104.62182065058998
 20
25.595125986037374
 10
104.61953878040528
 20
26.429523306695472
 10
104.62610757242582
 20
27.251270201328783
 10
104.63256671767847
 20
28.05211909731505
 10
104.6401653773246
 20
28.90696528462757
 10
104.66982892199118
 20
29.753030761186047
 10
104.69522100529953
 20
30.553155503702243
 10
104.7258757933256
 20
31.404973563092184
 10
104.77442436294122
 20
32.24694452497101
 10
104.8218253150308
 20
33.07118740910372
 10
104.88209691442502
 20
33.92280176196385
 10
104.95158570268494
 20
34.74708287586522
 10
105.02333010016655
 20
35.593385594196405
 10
105.11586762249003
 20
36.442964754452
 10
105.20751498826776
 20
37.26117905878721
 10
105.31068234363975
 20
38.112137894910774
 10
105.42768225469118
 20
38.9432510924877
 10
105.5465487004158
 20
39.78406584167162
 10
105.6864980419817
 20
40.628243647866526
 10
105.82636642410345
 20
41.45276164439939
 10
105.98157043745984
 20
42.292776573181456
 10
106.14144129533544
 20
43.102393310688825
 10
106.3071034664335
 20
43.93800792677007
 10
106.49352597089643
 20
44.76946597125233
 10
106.67889669926679
 20
45.592209972320205
 10
106.88360763121335
 20
46.42031096129941
  0
LWPOLYLINE
  5
95
330
17
100
AcDbEntity
  8
SCARNITURA
100
AcDbPolyline
 90
310
 70
0
 10
109.14539016566609
 20
43.65864337743247
 10
108.3442581531544
 20
43.6253437534438
 10
107.55101209633342
 20
43.591684538628584
 10
106.74943173220046
 20
43.55577028477264
 10
105.95088386624057
 20
43.5226647254034
 10
105.14641000462423
 20
43.48614704710893
 10
104.33692712419722
 20
43.45453916210796
 10
103.54134255295742
 20
43.42227641802006
 10
102.74083499672615
 20
43.38935636217687
 10
101.94137211841968
 20
43.35723658548017
 10
101.1524043131312
 20
43.32468734405465
 10
100.34487737228218
 20
43.287905301965694
 10
99.53415024209949
 20
43.257644026670945
 10
98.75486535188925
 20
43.22638476169606
 10
97.95810293778129
 20
43.18848540769544
 10
97.17381356506948
 20
43.15600690765434
 10
96.38700272039294
 20
43.1124192553431
 10
95.58955041080645
 20
43.074376698512495
 10
94.80018444787463
 20
43.02986098253432
 10
93.98885413773387
 20
42.98716148313054
 10
93.19520761318583
 20
42.94723504071945
 10
92.39936500689377
 20
42.90303996055569
 10
91.59584536599878
 20
42.86124429462012
 10
90.80104386491757
 20
42.81877525606707
 10
89.99416124953919
 20
42.774998929504946
 10
89.18051996570138
 20
42.73462929722298
 10
88.37539189534537
 20
42.69666989612691
 10
87.57397851643789
 20
42.659157993176976
 10
86.77302410599751
 20
42.622142127974804
 10
85.96711537037251
 20
42.58497848385563
 10
85.16128504111828
 20
42.55028764244385
 10
84.35120318825294
 20
42.51543203204351
 10
83.53794459810445
 20
42.48464730726917
 10
82.73560696245504
 20
42.45549891371773
 10
81.93364966524146
 20
42.42613064280833
 10
81.1240075337036
 20
42.39755764799702
 10
80.30167711715475
 20
42.371461982103284
 10
79.48556242184347
 20
42.351741105383695
 10
78.67691343846126
 20
42.33250480981084
 10
77.86669705395812
 20
42.31636946253501
 10
77.05105005389125
 20
42.30103588036857
 10
76.23583909062053
 20
42.29104667617773
 10
75.4214821268541
 20
42.281778077731616
 10
74.60090238390333
 20
42.277466627392464
 10
73.78924115227576
 20
42.27638756667429
 10
72.97133986438529
 20
42.27671538230083
 10
72.15123144794407
 20
42.28277752064857
 10
71.33374891143542
 20
42.29114432549894
 10
70.50702440989102
 20
42.3043541324906
 10
69.68905149719394
 20
42.32348424373217
 10
68.8871433578753
 20
42.34341598045991
 10
68.06639907117108
 20
42.36340338959942
 10
67.25306229709767
 20
42.39193468029134
 10
66.45088564795233
 20
42.4168025536804
 10
65.63395476458321
 20
42.44637138831294
 10
64.82280203062824
 20
42.478426378197526
 10
64.01813244361205
 20
42.512129543471374
 10
63.21498806005149
 20
42.545858797997866
 10
62.402594500038454
 20
42.5812886683007
 10
61.604338373214254
 20
42.61990812940999
 10
60.807078755924515
 20
42.65416406122563
 10
60.002546353456886
 20
42.692094486062345
 10
59.20301998809657
 20
42.72845185571646
 10
58.38379762085077
 20
42.767081076035666
 10
57.57887194243363
 20
42.811613190531645
 10
56.79880196501751
 20
42.85060757198601
 10
55.97086558960304
 20
42.88856893540462
 10
55.16403455483223
 20
42.94032174776544
 10
54.3732872223832
 20
42.97958319177998
 10
53.570939341034084
 20
43.02758904314972
 10
52.77649035855301
 20
43.06840435237034
 10
51.97595939332182
 20
43.114329953391206
 10
51.18639789407168
 20
43.155457840292385
 10
50.37990114948018
 20
43.19777737657016
 10
49.56181776990035
 20
43.243364041787416
 10
48.75693362111165
 20
43.293217829097074
 10
47.959664089540546
 20
43.340027152508924
 10
47.15528930078518
 20
43.38913638316006
 10
46.343139027813855
 20
43.43905719609401
 10
45.54921894806841
 20
43.49282806318534
 10
44.745209655175195
 20
43.54037376543914
 10
43.93441467437796
 20
43.59724770410259
 10
43.14761798832345
 20
43.64863666525943
 10
42.36091410252133
 20
43.6991598247549
 10
41.57684085733426
 20
43.745606503636054
 10
40.779437613911256
 20
43.79081213269126
 10
40.001493449722616
 20
43.836296956111255
 10
39.22810539539649
 20
43.871868424746864
 10
38.44282787016971
 20
43.9073997594312
 10
37.66108095963764
 20
43.93779338310409
 10
36.87218221358714
 20
43.96631856069101
 10
36.08208359620295
 20
43.992691458134175
 10
35.29585285047582
 20
44.01723383677138
 10
34.50811081176132
 20
44.03806979383873
 10
33.718779237871075
 20
44.05780630571402
 10
32.9120495681079
 20
44.074790494782945
 10
32.07309082680578
 20
44.09856473472726
 10
31.26488741005241
 20
44.13124934168679
 10
30.47555854127295
 20
44.156905169941666
 10
29.674905252216274
 20
44.18503950508025
 10
28.877310162300347
 20
44.21128014710371
 10
28.06738484703893
 20
44.23877182887759
 10
27.25795738495937
 20
44.26943189877041
 10
26.448167933664617
 20
44.30080077032062
 10
25.64145303405227
 20
44.3353834929657
 10
24.834902835340866
 20
44.36946358867918
 10
24.025259630319606
 20
44.40694572519173
 10
23.204699950679593
 20
44.44579701668723
 10
22.38925162568695
 20
44.492119146397
 10
21.58153199356747
 20
44.53694503789921
 10
20.771273394343794
 20
44.586466997100935
 10
19.960095355737135
 20
44.636102040962925
 10
19.446081455922517
 20
44.68171689485891
 10
18.955350970634832
 20
44.62948793212023
 10
18.156840795046037
 20
44.56796403019467
 10
17.586479568192154
 20
44.530863039098875
 10
16.979108362410013
 20
44.41334837385332
 10
16.47568396872369
 20
44.34284064641337
 10
16.26723959729771
 20
44.266535334005795
 10
15.769116891657466
 20
44.0151315222074
 10
15.072041508698177
 20
43.679659421512184
 10
14.404668604085655
 20
43.34335449963319
 10
13.840077207619169
 20
43.05595595044775
 10
13.452232134025216
 20
42.82029839179298
 10
12.981213095019658
 20
42.4584906079648
 10
12.347341833468134
 20
41.97299606360767
 10
11.850574467360856
 20
41.602548748249944
 10
11.454306862136974
 20
41.23221276179717
 10
10.911250812220366
 20
40.69788219544188
 10
10.410492125566089
 20
40.22178114234302
 10
10.001262350295418
 20
39.77007258339756
 10
9.519204879402766
 20
39.21127959101296
 10
9.10192542340957
 20
38.7284415890651
 10
8.716837579200297
 20
38.19657744499812
 10
8.2705950322268
 20
37.59312041183294
 10
7.887623476906928
 20
37.0409449842667
 10
7.513249738623593
 20
36.45890053241631
 10
7.159988424106928
 20
35.886735117930876
 10
6.815774968242975
 20
35.26683336359763
 10
6.461904827525004
 20
34.6298612175995
 10
6.150971040215813
 20
34.02083911193638
 10
5.855830780370338
 20
33.407434801008485
 10
5.588971175948895
 20
32.797765308322326
 10
5.334438819572982
 20
32.16088315198251
 10
5.106776576780414
 20
31.550376985505157
 10
4.913015192035207
 20
30.93454989902989
 10
4.725010279042486
 20
30.276219971926064
 10
4.563545128430826
 20
29.64151191876124
 10
4.423827269333132
 20
28.966770469179743
 10
4.28735731506106
 20
28.269545202728057
 10
4.183810292495254
 20
27.63370142306989
 10
4.112593027490103
 20
27.014246352357784
 10
4.064576963578497
 20
26.339682988709296
 10
4.026325813881998
 20
25.61459709707072
 10
4.001945010544349
 20
24.9439035609928
 10
4.011174853701089
 20
24.250106510781
 10
4.022744401630817
 20
23.558714288261914
 10
4.068731174567697
 20
22.88121095773998
 10
4.117794786631226
 20
22.23676649902325
 10
4.20333522721725
 20
21.651547874815087
 10
4.312626148470294
 20
21.05835354109225
 10
4.46428909029241
 20
20.447067851685752
 10
4.648130513300346
 20
19.78003936467893
 10
4.856055620920921
 20
19.09742402005557
 10
5.068790932601118
 20
18.436695465417948
 10
5.308599254375968
 20
17.77838155316975
 10
5.571031828843587
 20
17.085545855659575
 10
5.83641483460617
 20
16.417339268182292
 10
6.122491017152045
 20
15.746679361017899
 10
6.395697410724351
 20
15.121991074643438
 10
6.667369568650331
 20
14.576776627973569
 10
6.9938018556564785
 20
13.994205615381723
 10
7.356407254209234
 20
13.373050604530858
 10
7.741007251662401
 20
12.745989959983172
 10
8.108706607384196
 20
12.158999250931108
 10
8.515186969067598
 20
11.571269884709018
 10
8.921942844393321
 20
10.98000997357176
 10
9.299267379364247
 20
10.478429567832002
 10
9.75197695041564
 20
9.93145474781105
 10
10.206383846629992
 20
9.379923832958289
 10
10.63906829175671
 20
8.899706989486415
 10
11.117141635082309
 20
8.404472107410255
 10
11.606506740738258
 20
7.918043703026363
 10
12.079367362933182
 20
7.478499704648353
 10
12.575656393806785
 20
7.056990808944201
 10
13.136809601335573
 20
6.609643873700776
 10
13.626916350512742
 20
6.2227506215343205
 10
14.009967313540049
 20
5.9674017096453795
 10
14.529846785337872
 20
5.691857010205226
 10
15.2206720624978
 20
5.332658925473048
 10
15.912588487259315
 20
4.969391372047118
 10
16.48797762677163
 20
4.674829684387742
 10
17.003220519293777
 20
4.453726059457697
 10
17.304580323841034
 20
4.32737608573116
 10
17.827256422153287
 20
4.253917334765806
 10
18.616014880782448
 20
4.082376908423441
 10
18.825853800203557
 20
4.016540918321066
 10
19.177388570348427
 20
4.069463905008217
 10
20.014730239009925
 20
4.1136869631665895
 10
20.836443286750196
 20
4.1546297004955655
 10
21.667762249667014
 20
4.189040845355386
 10
22.478128202709826
 20
4.216619630615249
 10
23.295486818928616
 20
4.246079265163846
 10
24.107646691002508
 20
4.2666342206719925
 10
24.923588245608006
 20
4.29110146693575
 10
25.728699137452363
 20
4.30506594814813
 10
26.53063988679611
 20
4.327216969486926
 10
27.343104420611372
 20
4.34059527848423
 10
28.150856869763924
 20
4.35795905245854
 10
28.94807829023773
 20
4.3680314747556075
 10
29.738741570953387
 20
4.386296740000734
 10
30.540844075010835
 20
4.4002868971637135
 10
31.31752573887911
 20
4.417461259855532
 10
32.098713052518384
 20
4.440314626136335
 10
32.883172599746956
 20
4.465051667941253
 10
33.68822858736719
 20
4.494843095049216
 10
34.504556265081135
 20
4.51841258602478
 10
35.29543340946846
 20
4.54126094697132
 10
36.08497141906764
 20
4.56767687485976
 10
36.87790000501478
 20
4.594741208063812
 10
37.66310361031355
 20
4.623764889798693
 10
38.44830686622783
 20
4.656354183688503
 10
39.23145770596561
 20
4.691005895273008
 10
40.00851701183317
 20
4.7296816620663655
 10
40.7919728805958
 20
4.773172986555046
 10
41.58597706048625
 20
4.818976068054482
 10
42.37077926067742
 20
4.864517322055303
 10
43.149194048644404
 20
4.915024385257489
 10
43.942636376170775
 20
4.969215481210828
 10
44.75279323548456
 20
5.023844107599027
 10
45.552412032660044
 20
5.073803663613424
 10
46.3554778651408
 20
5.127651174314845
 10
47.169852135376864
 20
5.176739848994767
 10
47.971796901848265
 20
5.224317209375755
 10
48.770465118649966
 20
5.2712675460222815
 10
49.569956292861086
 20
5.318855385523516
 10
50.37399195197248
 20
5.365931222783759
 10
51.18470902918574
 20
5.412155766940565
 10
51.98916113680707
 20
5.454585122526197
 10
52.77429176095284
 20
5.497324345423527
 10
53.58000201672466
 20
5.5455046666544
 10
54.38057817588793
 20
5.586408295280611
 10
55.172859936773385
 20
5.633359767281883
 10
55.99250520532685
 20
5.678006343281387
 10
56.793879088581356
 20
5.717272000502096
 10
57.59531320886652
 20
5.760157121850424
 10
58.40923817916718
 20
5.799172764449571
 10
59.21301158255719
 20
5.836369063220413
 10
60.01050803247516
 20
5.872903319480955
 10
60.80687614342788
 20
5.910596019140497
 10
61.603773483428945
 20
5.948371949285896
 10
62.4059169485238
 20
5.9873972460197376
 10
63.20830555450588
 20
6.0243692464790115
 10
64.01349151604485
 20
6.062406099146866
 10
64.80199467358254
 20
6.096464955568003
 10
65.59057520088697
 20
6.138181885742858
 10
66.37606327501452
 20
6.176324593614719
 10
67.16818482261621
 20
6.223793108299622
 10
67.9417721462145
 20
6.263893050955083
 10
68.72363296008903
 20
6.320987198962008
 10
69.54646491189304
 20
6.370658998847734
 10
70.35267458257773
 20
6.419706385754717
 10
71.15125350936424
 20
6.464850042549655
 10
71.9356815307347
 20
6.512817376807481
 10
72.73244627155877
 20
6.563675279854989
 10
73.52722874449701
 20
6.613081326145311
 10
74.327331396558
 20
6.665800656119041
 10
75.12278194128757
 20
6.714685442112035
 10
75.92294782916437
 20
6.768805540822857
 10
76.70964776610191
 20
6.816485323441562
 10
77.51438859840468
 20
6.875843608817341
 10
78.32114243720612
 20
6.922227429619618
 10
79.12286761389655
 20
6.978307131148306
 10
79.92009716648256
 20
7.022764810419563
 10
80.71599203971103
 20
7.079264181912507
 10
81.52488395930055
 20
7.125428814470988
 10
82.33073070343895
 20
7.178621410393099
 10
83.15528344973302
 20
7.222682642613542
 10
83.95030300638186
 20
7.265106752895063
 10
84.74578506455171
 20
7.309249125815461
 10
85.54720293644333
 20
7.35351618450602
 10
86.34697905250108
 20
7.397011317645635
 10
87.15140655016953
 20
7.4412295229123036
 10
87.94801640870544
 20
7.482467710633863
 10
88.76304137035758
 20
7.528330580132762
 10
89.56903576624966
 20
7.563681458235555
 10
90.36956852210379
 20
7.606243015116634
 10
91.1724044683934
 20
7.640942167793316
 10
91.9759436438749
 20
7.682380484984948
 10
92.78180376687386
 20
7.715539356279923
 10
93.58794422291695
 20
7.754631853931842
 10
94.39839424062613
 20
7.785289546380671
 10
95.19304048671557
 20
7.81963863708118
 10
96.00024529363907
 20
7.852155237996049
 10
96.78444620602504
 20
7.883074166562382
 10
97.60026542355625
 20
7.922179491057751
 10
98.39938120504492
 20
7.9471023016027775
 10
99.19336800898081
 20
7.985677147092474
 10
100.02388258439309
 20
8.013893285675914
 10
100.85270087364715
 20
8.041334479049278
 10
101.68595112051705
 20
8.057574969981625
 10
102.47570028658939
 20
8.070750229774852
 10
103.2661225823626
 20
8.090271048205182
 10
104.07192233117104
 20
8.10768669717071
 10
104.87661074593669
 20
8.125291459847544
 10
105.68621234727581
 20
8.140985792440802
 10
106.48610955830253
 20
8.15475703475188
 10
107.28666950529613
 20
8.170440414956268
 10
108.08626503475553
 20
8.184095089224702
 10
108.89294564041906
 20
8.20017607435414
  0
LWPOLYLINE
  5
96
330
17
100
AcDbEntity
  8
RIFERIMENTO
100
AcDbPolyline
 90
45
 70
0
 10
94.00483017823572
 20
46.355201357710136
 10
93.72565415138561
 20
45.28892030147789
 10
93.5412576519546
 20
44.59619638819355
 10
93.25736508319673
 20
43.44748651324041
 10
93.09725509381565
 20
42.83340714756521
 10
92.82041535431847
 20
41.63338311744269
 10
92.69811945365663
 20
41.079669238922286
 10
92.44277426908899
 20
39.825813423309015
 10
92.33946980954745
 20
39.31675462516442
 10
92.10317990576057
 20
38.02021117626013
 10
92.01647690324083
 20
37.54743276001979
 10
91.82171615379241
 20
36.19446072446336
 10
91.74893955191274
 20
35.760998731176144
 10
91.5795167489597
 20
34.341593202178814
 10
91.53737718254754
 20
33.933180341253056
 10
91.39926371596641
 20
32.454853589013624
 10
91.36824698577944
 20
32.05895957319699
 10
91.26957758058037
 20
30.497509798103138
 10
91.24169786001107
 20
30.10445970269437
 10
91.18824924153893
 20
28.41762646513828
 10
91.17154427186955
 20
28.005679393165536
 10
91.14885722805872
 20
25.92968908990524
 10
91.14324883642269
 20
25.43811980192011
 10
91.16403601775312
 20
23.36147427870302
 10
91.16922560095752
 20
22.859614285277292
 10
91.22111548855872
 20
21.171577361372798
 10
91.23749087426202
 20
20.75940674623726
 10
91.33502392587435
 20
19.20603220310992
 10
91.36265546731553
 20
18.80253705895622
 10
91.48626544833489
 20
17.331898878422685
 10
91.53100231085097
 20
16.915266496088
 10
91.69474010579619
 20
15.514114255171558
 10
91.7427119139705
 20
15.0934680293207
 10
91.94649847115213
 20
13.73857060784388
 10
92.01143368800831
 20
13.292744442476149
 10
92.24944300178177
 20
11.99251807060612
 10
92.33699994943268
 20
11.508678595073597
 10
92.58950978851968
 20
10.27263620872996
 10
92.69958324656423
 20
9.740585957102018
 10
92.96635780370158
 20
8.55614267402359
 10
93.10461173882686
 20
7.981279292388372
 10
93.38809607341706
 20
6.851256090148231
 10
93.55736140006151
 20
6.20468325468385
 10
93.83245546902339
 20
5.152880357356141
 10
94.03258252784974
 20
4.432793490627976
  0
LWPOLYLINE
  5
97
330
17
100
AcDbEntity
  8
RIFERIMENTO
100
AcDbPolyline
 90
89
 70
0
 10
91.51811940233188
 20
25.15522054731573
 10
89.83589654515725
 20
25.063571180086402
 10
89.6153929425899
 20
25.054537683680078
 10
87.94842998931821
 20
24.95289395370688
 10
87.70036784068604
 20
24.944144849695036
 10
86.06262574057928
 20
24.83241866712157
 10
85.7870328042716
 20
24.813935167084622
 10
84.18646292260621
 20
24.70220129429508
 10
83.8754469235997
 20
24.673940424370308
 10
82.32584175892018
 20
24.552027245171505
 10
81.96358627807233
 20
24.523909593097926
 10
80.47283030761818
 20
24.391833254495072
 10
80.0556195292834
 20
24.354226612476758
 10
78.63538494872485
 20
24.231637983912027
 10
78.16123555723115
 20
24.184299312240416
 10
76.81132621801937
 20
24.061105369348546
 10
76.26874956021643
 20
24.014370459119874
 10
75.01074826912499
 20
23.890458392337734
 10
74.38174043366355
 20
23.823867256951534
 10
73.20967563144896
 20
23.709373797985865
 10
72.5103693953767
 20
23.642972672651627
 10
71.44350116816194
 20
23.537555538095397
 10
70.63861432750612
 20
23.461341927688103
 10
69.68471279902332
 20
23.365054598959414
 10
68.79368016093872
 20
23.27853479119505
 10
67.94434277708213
 20
23.191307167600407
 10
66.9535451447443
 20
23.09437255093291
 10
66.22474702758961
 20
23.0264119585391
 10
65.13438805221627
 20
22.91886548311482
 10
64.5258531061962
 20
22.860199045218504
 10
63.322462530925954
 20
22.742334545248756
 10
62.833905029463544
 20
22.703102410516856
 10
61.5176218310701
 20
22.585084624700524
 10
61.156982038253794
 20
22.555542751348586
 10
59.70621090963616
 20
22.437442934531376
 10
59.48676359915616
 20
22.41761618924017
 10
57.91005505479024
 20
22.289570943397518
 10
57.831491192604915
 20
22.279535589760695
 10
56.884193705018895
 20
22.20046807164806
 10
56.20471079446726
 20
22.15111305529699
 10
56.12608316714817
 20
22.140930102883114
 10
54.60321580777023
 20
22.01188779758401
 10
54.3540889192513
 20
21.991701581494
 10
53.01651192429296
 20
21.88299734904413
 10
52.59722699027364
 20
21.843016780566664
 10
51.44963651016535
 20
21.743830305451283
 10
50.838848941971555
 20
21.694054785731076
 10
49.894098315569764
 20
21.613825427262874
 10
49.10049984133886
 20
21.545056734199783
 10
48.353087944941706
 20
21.484402179693188
 10
47.365353361149666
 20
21.40499715706782
 10
46.81824371558685
 20
21.355089848966514
 10
45.649898265193535
 20
21.254958799708053
 10
45.2943390660555
 20
21.22498944456216
 10
43.94554176762469
 20
21.114235653156758
 10
43.784860499652055
 20
21.105367315031064
 10
42.44206793443437
 20
20.99458466806592
 10
42.277532009511106
 20
20.984521146724795
 10
42.255891370728605
 20
20.98435283268047
 10
40.79018883297501
 20
20.858955391635877
 10
40.58228066799125
 20
20.84856371115572
 10
39.31210154205152
 20
20.745983131892796
 10
38.922874139536226
 20
20.7143518581586
 10
37.835214469305825
 20
20.630494869303618
 10
37.27774526144935
 20
20.586912919304687
 10
36.36325071045162
 20
20.524567122119347
 10
35.6419062014157
 20
20.472677207970964
 10
34.87873243614498
 20
20.42159623200883
 10
33.99797542881922
 20
20.37033742078827
 10
33.38603248325316
 20
20.330184966320807
 10
32.35884519370377
 20
20.274202244317262
 10
31.88501977909536
 20
20.24555199814759
 10
30.72483031069488
 20
20.189355759668057
 10
30.38043041199514
 20
20.170811241802234
 10
29.095936152331568
 20
20.120363058974398
 10
28.863660828699615
 20
20.109654420783414
 10
27.47679154903116
 20
20.06018411552049
 10
27.330576152157157
 20
20.04939333383342
 10
25.863036763755822
 20
20.01024197632376
 10
25.789949403217808
 20
20.009730267662253
 10
24.258260542516553
 20
19.97796658643769
 10
24.258260542516553
 20
19.97796658643769
 10
23.974216897769423
 20
19.968030075826523
 10
22.713903338581495
 20
19.962985347229093
 10
22.67088990616866
 20
19.96365978314832
 10
21.177898384449826
 20
19.965165210391035
 10
21.104603583366544
 20
19.965072694325276
 10
21.086943905242794
 20
19.96255186959976
 10
20.91915826506512
 20
19.962943173352087
  0
LWPOLYLINE
  5
98
330
17
100
AcDbEntity
  8
RIFERIMENTO
100
AcDbPolyline
 90
82
 70
0
 10
20.904656746434863
 20
28.601323662157796
 10
21.00818732809458
 20
28.601891519789838
 10
21.090396710134492
 20
28.59276219442875
 10
22.618942635644515
 20
28.56933205710957
 10
22.658025244434576
 20
28.567701561490544
 10
23.96233914368884
 20
28.540748017574106
 10
24.246545064405836
 20
28.534080325910306
 10
24.255220163265456
 20
28.53327818570737
 10
25.852106338119587
 20
28.498787360938138
 10
25.92953422304615
 20
28.49125017446414
 10
27.466457466668192
 20
28.4530715265232
 10
27.62988106859463
 20
28.45582467954351
 10
29.08562026810322
 20
28.40451946953538
 10
29.356776197224537
 20
28.398161043734227
 10
30.71415606667895
 20
28.345576803363198
 10
31.118943234924863
 20
28.32695844410193
 10
32.34776787779854
 20
28.269689428610995
 10
32.90799578821961
 20
28.243142109180244
 10
33.98660739073161
 20
28.181795681802893
 10
34.72826768777794
 20
28.144051587662606
 10
35.63049143810911
 20
28.087177532409783
 10
36.56689898582006
 20
28.01912729851201
 10
37.26666348438655
 20
27.980097056840002
 10
38.419635022402964
 20
27.890579005632148
 10
38.91235021379396
 20
27.858976869409247
 10
40.29972317377137
 20
27.749390502029097
 10
40.5723068297137
 20
27.729939435680155
 10
42.216295140741856
 20
27.609048501464635
 10
42.24646983603358
 20
27.598265601858696
 10
42.43268332196268
 20
27.58837951126319
 10
43.93628910766528
 20
27.471521635256167
 10
44.14423982966058
 20
27.451216278378084
 10
45.640849696363084
 20
27.333046196966208
 10
46.096699863709865
 20
27.293141800876125
 10
47.35657315410415
 20
27.18443520329726
 10
48.06090633105055
 20
27.12438940538263
 10
49.091975348471124
 20
27.045065725526868
 10
50.04202041005636
 20
26.965770117089967
 10
50.830771397682646
 20
26.896130249714663
 10
52.03548425983149
 20
26.796649051945423
 10
52.589718950777396
 20
26.746645353334905
 10
54.02803414128888
 20
26.626766881930493
 10
54.347260186538655
 20
26.59683934046733
 10
56.02799439248667
 20
26.45575152530629
 10
56.120042950062576
 20
26.44580876429752
 10
56.87850599302646
 20
26.3851633547335
 10
57.90472109212039
 20
26.29456365854709
 10
57.99686916661728
 20
26.284440306141374
 10
59.70151232283465
 20
26.14306900097115
 10
59.956480313794394
 20
26.122667164218647
 10
61.51362050606882
 20
26.000539641314422
 10
61.90993830181003
 20
25.979805955275665
 10
63.31922687798282
 20
25.87695771785645
 10
63.87076806583953
 20
25.84574284485801
 10
65.13190998378244
 20
25.7722936646254
 10
65.82543889205948
 20
25.740347452275106
 10
66.95176818605361
 20
25.676581717047
 10
67.7794605622727
 20
25.643747713936875
 10
68.79248939166979
 20
25.599948158798114
 10
69.74643361280216
 20
25.576220694471505
 10
70.63787656212455
 20
25.542688733178526
 10
71.718456495791
 20
25.51797788295532
 10
72.50997310411617
 20
25.494689450180594
 10
73.69007695308984
 20
25.478994198470282
 10
74.38157607432754
 20
25.46606298652023
 10
75.66712525932415
 20
25.44953579937716
 10
76.26874296616103
 20
25.44664978643236
 10
77.63821879957955
 20
25.44955524542361
 10
78.16132795527732
 20
25.44703650278882
 10
79.60916911956474
 20
25.44932003206053
 10
80.05577847057862
 20
25.456993406277878
 10
81.57624584809363
 20
25.4686743179831
 10
81.96375752951363
 20
25.47691175753696
 10
83.5431296217883
 20
25.498148037019295
 10
83.87566925296794
 20
25.50647606257165
 10
85.49597386728365
 20
25.547951077252694
 10
85.78726505247467
 20
25.556359438163387
 10
87.44475897794861
 20
25.597758551042567
 10
87.70061228993306
 20
25.606364387424378
 10
89.36754842929389
 20
25.667901798746882
 10
89.61564887826825
 20
25.676629371045063
 10
91.29203773123126
 20
25.738283030491175
  0
LWPOLYLINE
  5
99
330
17
100
AcDbEntity
  8
ASSE
100
AcDbPolyline
 90
10
 70
0
 10
38.78170014896722
 20
24.28630228043887
 10
38.781700149875796
 20
24.286302280440268
 10
40.454877978874876
 20
24.288940324712264
 10
40.45487797978351
 20
24.288940324713135
 10
42.142332271227595
 20
24.291044857744282
 10
42.14233227213447
 20
24.291044857744712
 10
43.84360290110882
 20
24.292650820693577
 10
43.84360290201209
 20
24.292650820693655
 10
45.558206152895494
 20
24.293799675872727
 10
45.55820615379328
 20
24.29379967587253
  0
LWPOLYLINE
  5
9A
330
17
100
AcDbEntity
  8
ASSE
100
AcDbPolyline
 90
6
 70
0
 10
47.28562596184413
 20
24.294533641238463
 10
49.025299301539505
 20
24.294899526944857
 10
49.025299302422276
 20
24.29489952694431
 10
50.776596698063805
 20
24.294948205600853
 10
50.77659669893867
 20
24.29494820560019
 10
52.538838107546376
 20
24.294696363200305
  0
LWPOLYLINE
  5
9B
330
17
100
AcDbEntity
  8
ASSE
100
AcDbPolyline
 90
10
 70
0
 10
52.538838107546376
 20
24.294696363200305
 10
52.53883810841327
 20
24.294696363199538
 10
54.31129932037784
 20
24.294134855712194
 10
54.31129932123682
 20
24.29413485571133
 10
56.09321774776086
 20
24.293229252874227
 10
56.09321774861204
 20
24.293229252873267
 10
57.88379966624025
 20
24.291912673143372
 10
57.88379966708385
 20
24.291912673142285
 10
59.682227807748646
 20
24.290080895982115
 10
59.68222780858466
 20
24.29008089598409
  0
LWPOLYLINE
  5
9C
330
17
100
AcDbEntity
  8
ASSE
100
AcDbPolyline
 90
10
 70
0
 10
66.93940799390286
 20
24.387328127497963
 10
66.93940799508505
 20
24.38732812753216
 10
67.51520288078798
 20
24.403879719033586
 10
68.77800421090332
 20
24.440179749272957
 10
68.77800421352727
 20
24.440179749347806
 10
70.1890970647194
 20
24.48722161832339
 10
70.63048375151612
 20
24.501936209690758
 10
70.6304837523212
 20
24.501936209720526
 10
72.4955343612899
 20
24.571473061778423
 10
72.49553436209129
 20
24.571473061810607
  0
LWPOLYLINE
  5
9D
330
17
100
AcDbEntity
  8
ASSE
100
AcDbPolyline
 90
12
 70
0
 10
85.78196745232985
 20
25.183649622713517
 10
87.03067549279106
 20
25.24362652617054
 10
87.69465847900838
 20
25.275518403349068
 10
87.69465848047464
 20
25.275518403419568
 10
89.6062561777445
 20
25.3649796825322
 10
89.60625618014181
 20
25.36497968264402
 10
90.81071749726668
 20
25.41913270574066
 10
91.5151796055922
 20
25.450805580808066
 10
91.51517960694815
 20
25.450805580866664
 10
92.56088955899283
 20
25.495243639529004
 10
93.41987298413966
 20
25.53174664474666
 10
93.41987298526445
 20
25.531746644793706
  0
LWPOLYLINE
  5
9E
330
17
100
AcDbEntity
  8
ASSE
100
AcDbPolyline
 90
13
 70
0
 10
99.1255979133379
 20
25.736813771437294
 10
99.12559791692826
 20
25.736813771548466
 10
100.68871892788343
 20
25.78449988986775
 10
101.04868030403838
 20
25.795481228262314
 10
101.04868030487297
 20
25.79548122828746
 10
102.98067626515973
 20
25.851755049208442
 10
102.98067626641692
 20
25.851755049244908
 10
104.21471839804522
 20
25.88696142583208
 10
104.91781433592415
 20
25.907020271256222
 10
104.91781433662302
 20
25.90702027127631
 10
105.64451462771564
 20
25.92787404920942
 10
106.85631554001333
 20
25.96264853249137
 10
106.8563155411889
 20
25.962648532525105
  0
LWPOLYLINE
  5
9F
330
17
100
AcDbEntity
  8
TACCHE
100
AcDbPolyline
 90
2
 70
0
 10
93.97412384849045
 20
46.991090878922336
 10
94.11994346296787
 20
43.994636867923056
  0
LWPOLYLINE
  5
A0
330
17
100
AcDbEntity
  8
TACCHE
100
AcDbPolyline
 90
2
 70
0
 10
94.05511599351003
 20
3.7713568224521197
 10
93.9216041361212
 20
6.768384447272517
  0
TEXT
  5
A1
330
17
100
AcDbEntity
  8
TESTO
100
AcDbText
 10
24.316888863352492
 20
31.150410883538175
 30
0.0
 40
4.0
  1
LINGUETTA
 72
1
 11
24.316888863352492
 21
31.150410883538175
 31
0.0
100
AcDbText
 73
2
  0
TEXT
  5
A2
330
17
100
AcDbEntity
  8
TESTO
100
AcDbText
 10
24.316888863352492
 20
24.350410883538174
 30
0.0
 40
2.6
  1
Oxford cap-toe tg 42 - destra
 72
1
 11
24.316888863352492
 21
24.350410883538174
 31
0.0
100
AcDbText
 73
2
  0
TEXT
  5
A3
330
17
100
AcDbEntity
  8
TESTO
100
AcDbText
 10
24.316888863352492
 20
19.930410883538173
 30
0.0
 40
2.6
  1
vitello box 1,4 mm
 72
1
 11
24.316888863352492
 21
19.930410883538173
 31
0.0
100
AcDbText
 73
2
  0
TEXT
  5
A4
330
17
100
AcDbEntity
  8
TESTO
100
AcDbText
 10
24.316888863352492
 20
15.510410883538173
 30
0.0
 40
2.6
  1
tagliare 2 per paio (dx + sx speculare)
 72
1
 11
24.316888863352492
 21
15.510410883538173
 31
0.0
100
AcDbText
 73
2
  0
TEXT
  5
A5
330
17
100
AcDbEntity
  8
TESTO
100
AcDbText
 10
104.61953878040528
 20
26.429523306695472
 30
0.0
 40
2.2
  1
scarnire 4
 72
1
 11
104.61953878040528
 21
26.429523306695472
 31
0.0
100
AcDbText
 73
2
  0
TEXT
  5
A6
330
17
100
AcDbEntity
  8
TESTO
100
AcDbText
 10
4.011174853701089
 20
24.250106510781
 30
0.0
 40
2.2
  1
scarnire 4
 72
1
 11
4.011174853701089
 21
24.250106510781
 31
0.0
100
AcDbText
 73
2
  0
LWPOLYLINE
  5
A7
330
17
100
AcDbEntity
  8
TESTO
100
AcDbPolyline
 90
2
 70
0
 10
9.316888863352492
 20
6.150410883538175
 10
39.31688886335249
 20
6.150410883538175
  0
LWPOLYLINE
  5
A8
330
17
100
AcDbEntity
  8
TESTO
100
AcDbPolyline
 90
3
 70
0
 10
35.31688886335249
 20
8.150410883538175
 10
39.31688886335249
 20
6.150410883538175
 10
35.31688886335249
 20
4.150410883538175
  0
TEXT
  5
A9
330
17
100
AcDbEntity
  8
TESTO
100
AcDbText
 10
24.31688886335249
 20
9.150410883538175
 30
0.0
 40
2.2
  1
verso del tiro
 72
1
 11
24.31688886335249
 21
9.150410883538175
 31
0.0
100
AcDbText
 73
2
  0
ENDSEC
  0
SECTION
  2
OBJECTS
  0
DICTIONARY
  5
A
330
0
100
AcDbDictionary
281
1
  3
ACAD_COLOR
350
B
  3
ACAD_GROUP
350
C
  3
ACAD_LAYOUT
350
D
  3
ACAD_MATERIAL
350
E
  3
ACAD_MLEADERSTYLE
350
F
  3
ACAD_MLINESTYLE
350
10
  3
ACAD_PLOTSETTINGS
350
11
  3
ACAD_PLOTSTYLENAME
350
12
  3
ACAD_SCALELIST
350
14
  3
ACAD_TABLESTYLE
350
15
  3
ACAD_VISUALSTYLE
350
16
  3
EZDXF_META
350
2D
  0
DICTIONARY
  5
B
330
A
100
AcDbDictionary
281
1
  0
DICTIONARY
  5
C
330
A
100
AcDbDictionary
281
1
  0
DICTIONARY
  5
D
330
A
100
AcDbDictionary
281
1
  3
Model
350
1A
  3
Layout1
350
1E
  0
DICTIONARY
  5
E
330
A
100
AcDbDictionary
281
1
  3
ByBlock
350
1F
  3
ByLayer
350
20
  3
Global
350
21
  0
DICTIONARY
  5
F
330
A
100
AcDbDictionary
281
1
  3
Standard
350
2C
  0
DICTIONARY
  5
10
330
A
100
AcDbDictionary
281
1
  3
Standard
350
22
  0
DICTIONARY
  5
11
330
A
100
AcDbDictionary
281
1
  0
ACDBDICTIONARYWDFLT
  5
12
330
A
100
AcDbDictionary
281
1
  3
Normal
350
13
100
AcDbDictionaryWithDefault
340
13
  0
ACDBPLACEHOLDER
  5
13
330
12
  0
DICTIONARY
  5
14
330
A
100
AcDbDictionary
281
1
  0
DICTIONARY
  5
15
330
A
100
AcDbDictionary
281
1
  0
DICTIONARY
  5
16
330
A
100
AcDbDictionary
281
1
  3
2dWireframe
350
5A
  3
Basic
350
5B
  3
Brighten
350
5C
  3
ColorChange
350
5D
  3
Conceptual
350
5E
  3
Dim
350
5F
  3
EdgeColorOff
350
60
  3
Facepattern
350
61
  3
Flat
350
62
  3
FlatWithEdges
350
63
  3
Gouraud
350
64
  3
GouraudWithEdges
350
65
  3
Hidden
350
66
  3
JitterOff
350
67
  3
Linepattern
350
68
  3
Modeling
350
69
  3
OverhangOff
350
6A
  3
Realistic
350
6B
  3
Shaded
350
6C
  3
Shaded with edges
350
6D
  3
Shades of Gray
350
6E
  3
Sketchy
350
6F
  3
Thicken
350
70
  3
Wireframe
350
71
  3
X-Ray
350
72
  0
LAYOUT
  5
1A
330
D
100
AcDbPlotSettings
  1

  4
A3
  6

 40
7.5
 41
20.0
 42
7.5
 43
20.0
 44
420.0
 45
297.0
 46
0.0
 47
0.0
 48
0.0
 49
0.0
140
0.0
141
0.0
142
1.0
143
1.0
 70
1024
 72
1
 73
0
 74
5
  7

 75
16
 76
0
 77
2
 78
300
147
1.0
148
0.0
149
0.0
100
AcDbLayout
  1
Model
 70
1
 71
0
 10
0.0
 20
0.0
 11
420.0
 21
297.0
 12
0.0
 22
0.0
 32
0.0
 14
1e+20
 24
1e+20
 34
1e+20
 15
-1e+20
 25
-1e+20
 35
-1e+20
146
0.0
 13
0.0
 23
0.0
 33
0.0
 16
1.0
 26
0.0
 36
0.0
 17
0.0
 27
1.0
 37
0.0
 76
1
330
17
  0
LAYOUT
  5
1E
330
D
100
AcDbPlotSettings
  1

  4
A3
  6

 40
7.5
 41
20.0
 42
7.5
 43
20.0
 44
420.0
 45
297.0
 46
0.0
 47
0.0
 48
0.0
 49
0.0
140
0.0
141
0.0
142
1.0
143
1.0
 70
0
 72
1
 73
0
 74
5
  7

 75
16
 76
0
 77
2
 78
300
147
1.0
148
0.0
149
0.0
100
AcDbLayout
  1
Layout1
 70
1
 71
1
 10
0.0
 20
0.0
 11
420.0
 21
297.0
 12
0.0
 22
0.0
 32
0.0
 14
1e+20
 24
1e+20
 34
1e+20
 15
-1e+20
 25
-1e+20
 35
-1e+20
146
0.0
 13
0.0
 23
0.0
 33
0.0
 16
1.0
 26
0.0
 36
0.0
 17
0.0
 27
1.0
 37
0.0
 76
1
330
1B
  0
MATERIAL
  5
1F
102
{ACAD_REACTORS
330
E
102
}
330
E
100
AcDbMaterial
  1
ByBlock
  2

 70
0
 40
1.0
 71
1
 41
1.0
 91
-1023410177
 42
1.0
 72
1
  3

 73
1
 74
1
 75
1
 44
0.5
 73
0
 45
1.0
 46
1.0
 77
1
  4

 78
1
 79
1
170
1
 48
1.0
171
1
  6

172
1
173
1
174
1
140
1.0
141
1.0
175
1
  7

176
1
177
1
178
1
143
1.0
179
1
  8

270
1
271
1
272
1
145
1.0
146
1.0
273
1
  9

274
1
275
1
276
1
 42
1.0
 72
1
  3

 73
1
 74
1
 75
1
 94
63
  0
MATERIAL
  5
20
102
{ACAD_REACTORS
330
E
102
}
330
E
100
AcDbMaterial
  1
ByLayer
  2

 70
0
 40
1.0
 71
1
 41
1.0
 91
-1023410177
 42
1.0
 72
1
  3

 73
1
 74
1
 75
1
 44
0.5
 73
0
 45
1.0
 46
1.0
 77
1
  4

 78
1
 79
1
170
1
 48
1.0
171
1
  6

172
1
173
1
174
1
140
1.0
141
1.0
175
1
  7

176
1
177
1
178
1
143
1.0
179
1
  8

270
1
271
1
272
1
145
1.0
146
1.0
273
1
  9

274
1
275
1
276
1
 42
1.0
 72
1
  3

 73
1
 74
1
 75
1
 94
63
  0
MATERIAL
  5
21
102
{ACAD_REACTORS
330
E
102
}
330
E
100
AcDbMaterial
  1
Global
  2

 70
0
 40
1.0
 71
1
 41
1.0
 91
-1023410177
 42
1.0
 72
1
  3

 73
1
 74
1
 75
1
 44
0.5
 73
0
 45
1.0
 46
1.0
 77
1
  4

 78
1
 79
1
170
1
 48
1.0
171
1
  6

172
1
173
1
174
1
140
1.0
141
1.0
175
1
  7

176
1
177
1
178
1
143
1.0
179
1
  8

270
1
271
1
272
1
145
1.0
146
1.0
273
1
  9

274
1
275
1
276
1
 42
1.0
 72
1
  3

 73
1
 74
1
 75
1
 94
63
  0
MLINESTYLE
  5
22
102
{ACAD_REACTORS
330
10
102
}
330
10
100
AcDbMlineStyle
  2
Standard
 70
0
  3

 62
256
 51
90.0
 52
90.0
 71
2
 49
0.5
 62
256
  6
BYLAYER
 49
-0.5
 62
256
  6
BYLAYER
  0
MLEADERSTYLE
  5
2C
102
{ACAD_REACTORS
330
F
102
}
330
F
100
AcDbMLeaderStyle
179
2
170
2
171
1
172
0
 90
2
 40
0.0
 41
0.0
173
1
 91
-1056964608
 92
-2
290
1
 42
2.0
291
1
 43
8.0
  3
Standard
 44
4.0
300

342
29
174
1
175
1
176
0
178
1
 93
-1056964608
 45
4.0
292
0
297
0
 46
4.0
 94
-1056964608
 47
1.0
 49
1.0
140
1.0
294
1
141
0.0
177
0
142
1.0
295
0
296
0
143
3.75
271
0
272
9
273
9
  0
DICTIONARY
  5
2D
330
A
100
AcDbDictionary
280
1
281
1
  3
CREATED_BY_EZDXF
350
2E
  3
WRITTEN_BY_EZDXF
350
AC
  0
DICTIONARYVAR
  5
2E
330
2D
100
DictionaryVariables
280
0
  1
1.4.4 @ 2026-10-01T21:35:16.235650+00:00
  0
VISUALSTYLE
  5
5A
102
{ACAD_REACTORS
330
16
102
}
330
16
100
AcDbVisualStyle
  2
2dWireframe
 70
4
 90
0
 40
0.6
 62
7
290
0
291
0
  0
VISUALSTYLE
  5
5B
102
{ACAD_REACTORS
330
16
102
}
330
16
100
AcDbVisualStyle
  2
Basic
 70
7
 90
1
 40
0.6
 62
7
290
0
291
1
  0
VISUALSTYLE
  5
5C
102
{ACAD_REACTORS
330
16
102
}
330
16
100
AcDbVisualStyle
  2
Brighten
 70
12
 90
2
 40
0.6
 62
7
290
0
291
1
  0
VISUALSTYLE
  5
5D
102
{ACAD_REACTORS
330
16
102
}
330
16
100
AcDbVisualStyle
  2
ColorChange
 70
16
 90
2
 40
0.6
 62
8
290
0
291
1
  0
VISUALSTYLE
  5
5E
102
{ACAD_REACTORS
330
16
102
}
330
16
100
AcDbVisualStyle
  2
Conceptual
 70
9
 90
3
 40
0.6
 62
7
290
0
291
0
  0
VISUALSTYLE
  5
5F
102
{ACAD_REACTORS
330
16
102
}
330
16
100
AcDbVisualStyle
  2
Dim
 70
11
 90
2
 40
0.6
 62
7
290
0
291
1
  0
VISUALSTYLE
  5
60
102
{ACAD_REACTORS
330
16
102
}
330
16
100
AcDbVisualStyle
  2
EdgeColorOff
 70
22
 90
2
 40
0.6
 62
7
290
0
291
1
  0
VISUALSTYLE
  5
61
102
{ACAD_REACTORS
330
16
102
}
330
16
100
AcDbVisualStyle
  2
Facepattern
 70
15
 90
2
 40
0.6
 62
7
290
0
291
1
  0
VISUALSTYLE
  5
62
102
{ACAD_REACTORS
330
16
102
}
330
16
100
AcDbVisualStyle
  2
Flat
 70
0
 90
2
 40
0.6
 62
7
290
0
291
1
  0
VISUALSTYLE
  5
63
102
{ACAD_REACTORS
330
16
102
}
330
16
100
AcDbVisualStyle
  2
FlatWithEdges
 70
1
 90
2
 40
0.6
 62
7
290
0
291
1
  0
VISUALSTYLE
  5
64
102
{ACAD_REACTORS
330
16
102
}
330
16
100
AcDbVisualStyle
  2
Gouraud
 70
2
 90
2
 40
0.6
 62
7
290
0
291
1
  0
VISUALSTYLE
  5
65
102
{ACAD_REACTORS
330
16
102
}
330
16
100
AcDbVisualStyle
  2
GouraudWithEdges
 70
3
 90
2
 40
0.6
 62
7
290
0
291
1
  0
VISUALSTYLE
  5
66
102
{ACAD_REACTORS
330
16
102
}
330
16
100
AcDbVisualStyle
  2
Hidden
 70
6
 90
1
 40
0.6
 62
7
290
0
291
0
  0
VISUALSTYLE
  5
67
102
{ACAD_REACTORS
330
16
102
}
330
16
100
AcDbVisualStyle
  2
JitterOff
 70
20
 90
2
 40
0.6
 62
7
290
0
291
1
  0
VISUALSTYLE
  5
68
102
{ACAD_REACTORS
330
16
102
}
330
16
100
AcDbVisualStyle
  2
Linepattern
 70
14
 90
2
 40
0.6
 62
7
290
0
291
1
  0
VISUALSTYLE
  5
69
102
{ACAD_REACTORS
330
16
102
}
330
16
100
AcDbVisualStyle
  2
Modeling
 70
10
 90
2
 40
0.6
 62
7
290
0
291
0
  0
VISUALSTYLE
  5
6A
102
{ACAD_REACTORS
330
16
102
}
330
16
100
AcDbVisualStyle
  2
OverhangOff
 70
21
 90
2
 40
0.6
 62
7
290
0
291
1
  0
VISUALSTYLE
  5
6B
102
{ACAD_REACTORS
330
16
102
}
330
16
100
AcDbVisualStyle
  2
Realistic
 70
8
 90
2
 40
0.6
 62
7
290
0
291
0
  0
VISUALSTYLE
  5
6C
102
{ACAD_REACTORS
330
16
102
}
330
16
100
AcDbVisualStyle
  2
Shaded
 70
27
 90
2
 40
0.6
 62
7
290
0
291
0
  0
VISUALSTYLE
  5
6D
102
{ACAD_REACTORS
330
16
102
}
330
16
100
AcDbVisualStyle
  2
Shaded with edges
 70
26
 90
2
 40
0.6
 62
7
290
0
291
0
  0
VISUALSTYLE
  5
6E
102
{ACAD_REACTORS
330
16
102
}
330
16
100
AcDbVisualStyle
  2
Shades of Gray
 70
23
 90
2
 40
0.6
 62
7
290
0
291
0
  0
VISUALSTYLE
  5
6F
102
{ACAD_REACTORS
330
16
102
}
330
16
100
AcDbVisualStyle
  2
Sketchy
 70
24
 90
1
 40
0.6
 62
7
290
0
291
0
  0
VISUALSTYLE
  5
70
102
{ACAD_REACTORS
330
16
102
}
330
16
100
AcDbVisualStyle
  2
Thicken
 70
13
 90
2
 40
0.6
 62
7
290
0
291
1
  0
VISUALSTYLE
  5
71
102
{ACAD_REACTORS
330
16
102
}
330
16
100
AcDbVisualStyle
  2
Wireframe
 70
5
 90
0
 40
0.6
 62
7
290
0
291
0
  0
VISUALSTYLE
  5
72
102
{ACAD_REACTORS
330
16
102
}
330
16
100
AcDbVisualStyle
  2
X-Ray
 70
25
 90
2
 40
0.5
 62
7
290
0
291
0
  0
DICTIONARYVAR
  5
AC
330
2D
100
DictionaryVariables
280
0
  1
1.4.4 @ 2026-10-01T21:35:16.246131+00:00
  0
ENDSEC
  0
EOF
